<?xml version="1.0" encoding="UTF-8"?>
<!DOCTYPE svg PUBLIC "-//W3C//DTD SVG 1.1//EN" "http://www.w3.org/Graphics/SVG/1.1/DTD/svg11.dtd">
<svg xmlns="http://www.w3.org/2000/svg" version="1.1" width="232px" height="230px" style="shape-rendering:geometricPrecision; text-rendering:geometricPrecision; image-rendering:optimizeQuality; fill-rule:evenodd; clip-rule:evenodd" xmlns:xlink="http://www.w3.org/1999/xlink">
<g><path style="opacity:0.996" fill="#c27344" d="M 103.5,-0.5 C 111.5,-0.5 119.5,-0.5 127.5,-0.5C 188.761,10.4278 223.427,46.7612 231.5,108.5C 231.5,112.5 231.5,116.5 231.5,120.5C 226.899,169.515 201.899,203.682 156.5,223C 148.84,225.661 141.173,227.828 133.5,229.5C 121.5,229.5 109.5,229.5 97.5,229.5C 54.3648,220.83 24.1982,196.164 7,155.5C 3.19743,144.306 0.697427,132.973 -0.5,121.5C -0.5,117.167 -0.5,112.833 -0.5,108.5C 7.54472,46.7882 42.2114,10.4549 103.5,-0.5 Z"/></g>
<g><path style="opacity:1" fill="#fcf8f6" d="M 122.5,36.5 C 136.839,34.9232 148.673,39.5899 158,50.5C 161.623,55.206 163.123,60.5393 162.5,66.5C 162.921,74.7444 161.088,82.4111 157,89.5C 145.667,98.8333 134.333,108.167 123,117.5C 118.531,124.771 114.865,132.438 112,140.5C 104.609,153.124 93.7761,161.291 79.5,165C 72.0088,165.927 64.5088,166.761 57,167.5C 37.1957,167.86 27.6957,158.193 28.5,138.5C 31.1491,120.002 40.4825,105.835 56.5,96C 62.7132,92.0381 69.3799,89.0381 76.5,87C 81.5105,75.1415 87.6771,63.9748 95,53.5C 102.106,44.1759 111.272,38.5092 122.5,36.5 Z"/></g>
<g><path style="opacity:1" fill="#c4784b" d="M 128.5,47.5 C 131.187,47.3359 133.854,47.5026 136.5,48C 136.957,48.414 137.291,48.914 137.5,49.5C 135.694,54.9204 133.694,60.2538 131.5,65.5C 128.307,64.7721 126.307,62.9388 125.5,60C 126.824,55.8856 127.824,51.7189 128.5,47.5 Z"/></g>
<g><path style="opacity:1" fill="#c57a4d" d="M 122.5,47.5 C 123.978,47.238 125.311,47.5713 126.5,48.5C 125.012,52.7872 123.678,57.1206 122.5,61.5C 119.904,60.5178 117.238,59.8511 114.5,59.5C 114.335,56.4816 114.502,53.4816 115,50.5C 117.48,49.1885 119.98,48.1885 122.5,47.5 Z"/></g>
<g><path style="opacity:1" fill="#c4774a" d="M 139.5,50.5 C 142.168,50.8337 144.168,52.1671 145.5,54.5C 144.103,59.7723 142.937,65.1056 142,70.5C 141.586,70.9574 141.086,71.2907 140.5,71.5C 137.55,70.3753 135.55,68.3753 134.5,65.5C 135.977,60.4035 137.643,55.4035 139.5,50.5 Z"/></g>
<g><path style="opacity:1" fill="#daa98d" d="M 109.5,57.5 C 111.256,56.4479 111.923,54.7812 111.5,52.5C 112.513,53.6591 112.847,55.6591 112.5,58.5C 111.209,58.7373 110.209,58.404 109.5,57.5 Z"/></g>
<g><path style="opacity:1" fill="#c37648" d="M 111.5,52.5 C 111.923,54.7812 111.256,56.4479 109.5,57.5C 108.448,57.6495 107.448,57.4828 106.5,57C 108.037,55.2927 109.704,53.7927 111.5,52.5 Z"/></g>
<g><path style="opacity:1" fill="#c4784b" d="M 147.5,55.5 C 148.885,56.5736 150.051,57.9069 151,59.5C 151.667,64.8333 151.667,70.1667 151,75.5C 150.751,76.624 150.251,77.624 149.5,78.5C 147.329,76.8281 145.329,74.9948 143.5,73C 144.942,67.1944 146.275,61.3611 147.5,55.5 Z"/></g>
<g><path style="opacity:1" fill="#c4784b" d="M 103.5,59.5 C 105.527,59.3379 107.527,59.5045 109.5,60C 109.957,60.414 110.291,60.914 110.5,61.5C 108.941,65.6194 107.107,69.6194 105,73.5C 101.854,74.5494 98.6878,74.3827 95.5,73C 97.9948,68.3523 100.662,63.8523 103.5,59.5 Z"/></g>
<g><path style="opacity:1" fill="#c4774a" d="M 112.5,61.5 C 115.85,61.5056 118.85,62.5056 121.5,64.5C 119.393,68.3806 117.559,72.3806 116,76.5C 112.704,77.5153 109.871,76.6819 107.5,74C 109.601,69.9704 111.268,65.8038 112.5,61.5 Z"/></g>
<g><path style="opacity:1" fill="#c4774a" d="M 123.5,64.5 C 126.384,65.3798 129.05,66.7132 131.5,68.5C 129.547,74.0332 127.214,79.3665 124.5,84.5C 121.94,82.7267 119.607,80.7267 117.5,78.5C 119.701,73.8912 121.701,69.2246 123.5,64.5 Z"/></g>
<g><path style="opacity:1" fill="#c4784a" d="M 132.5,69.5 C 136.119,70.4784 138.785,72.645 140.5,76C 138.136,82.0912 135.969,88.2579 134,94.5C 131.618,91.5728 129.118,88.7395 126.5,86C 129.391,80.8257 131.391,75.3257 132.5,69.5 Z"/></g>
<g><path style="opacity:1" fill="#c37648" d="M 93.5,76.5 C 96.8499,76.335 100.183,76.5017 103.5,77C 99.7693,83.642 95.436,89.8087 90.5,95.5C 88.7749,94.9851 87.1083,94.3184 85.5,93.5C 87.9074,87.6863 90.5741,82.0196 93.5,76.5 Z"/></g>
<g><path style="opacity:1" fill="#c47749" d="M 105.5,77.5 C 108.475,77.7134 111.142,78.7134 113.5,80.5C 109.972,87.5669 105.472,93.9002 100,99.5C 97.5253,99.0158 95.6919,97.6825 94.5,95.5C 98.1936,89.4826 101.86,83.4826 105.5,77.5 Z"/></g>
<g><path style="opacity:1" fill="#c57a4e" d="M 142.5,76.5 C 145.293,77.4593 147.293,79.2926 148.5,82C 145.916,86.8112 142.249,89.6446 137.5,90.5C 139.568,85.9617 141.235,81.295 142.5,76.5 Z"/></g>
<g><path style="opacity:1" fill="#c47749" d="M 115.5,81.5 C 118.283,83.0665 120.949,84.8999 123.5,87C 119.409,93.5922 114.743,99.7588 109.5,105.5C 107.032,104.197 104.699,102.697 102.5,101C 107.84,95.1622 112.173,88.6622 115.5,81.5 Z"/></g>
<g><path style="opacity:1" fill="#c4784b" d="M 124.5,88.5 C 127.297,90.795 129.964,93.295 132.5,96C 125.487,100.004 119.487,105.171 114.5,111.5C 112.054,110.573 111.221,108.906 112,106.5C 116.802,100.878 120.969,94.8776 124.5,88.5 Z"/></g>
<g><path style="opacity:1" fill="#fdfcfb" d="M 196.5,107.5 C 202.064,110.064 203.898,114.397 202,120.5C 192.88,134.282 180.047,141.116 163.5,141C 149.534,133.596 146.7,123.096 155,109.5C 164.394,97.9199 176.56,93.4199 191.5,96C 197.157,98.1866 198.824,102.02 196.5,107.5 Z"/></g>
<g><path style="opacity:1" fill="#c5794c" d="M 78.5,97.5 C 82.1817,97.3347 85.8484,97.5014 89.5,98C 84.8333,102.667 80.1667,107.333 75.5,112C 69.8003,111.16 64.1336,109.826 58.5,108C 64.5339,103.151 71.2005,99.6511 78.5,97.5 Z"/></g>
<g><path style="opacity:1" fill="#c37648" d="M 91.5,98.5 C 94.3029,99.0665 96.6363,100.4 98.5,102.5C 94.7129,108.389 90.2129,113.723 85,118.5C 82.5,116.667 80,114.833 77.5,113C 82.3699,108.298 87.0366,103.465 91.5,98.5 Z"/></g>
<g><path style="opacity:1" fill="#c37648" d="M 100.5,103.5 C 103.655,103.984 105.988,105.651 107.5,108.5C 103.73,115.037 99.2299,121.037 94,126.5C 91.8333,124.333 89.6667,122.167 87.5,120C 92.4288,114.912 96.7621,109.412 100.5,103.5 Z"/></g>
<g><path style="opacity:1" fill="#c37547" d="M 54.5,110.5 C 60.4217,110.73 66.0883,112.064 71.5,114.5C 67.3707,120.134 62.2041,124.468 56,127.5C 51.8333,126.333 47.6667,125.167 43.5,124C 46.6223,119.046 50.2889,114.546 54.5,110.5 Z"/></g>
<g><path style="opacity:1" fill="#c4784a" d="M 108.5,110.5 C 110.595,110.76 111.928,111.926 112.5,114C 108.333,121.836 104.333,129.67 100.5,137.5C 98.7073,134.749 97.0406,131.916 95.5,129C 100.442,123.231 104.775,117.064 108.5,110.5 Z"/></g>
<g><path style="opacity:1" fill="#dbaa8d" d="M 196.5,107.5 C 193.337,110.415 189.67,112.248 185.5,113C 188.91,110.628 192.577,108.795 196.5,107.5 Z"/></g>
<g><path style="opacity:1" fill="#c47749" d="M 74.5,115.5 C 78.2101,115.874 81.2101,117.541 83.5,120.5C 79.6821,124.818 75.6821,128.985 71.5,133C 70.1667,133.667 68.8333,133.667 67.5,133C 64.9861,131.243 62.3194,129.743 59.5,128.5C 64.8403,124.488 69.8403,120.155 74.5,115.5 Z"/></g>
<g><path style="opacity:1" fill="#c4784a" d="M 84.5,122.5 C 87.97,123.288 90.6367,125.288 92.5,128.5C 88.461,133.54 83.7944,137.873 78.5,141.5C 76.1667,139.833 74.1667,137.833 72.5,135.5C 76.5219,131.146 80.5219,126.813 84.5,122.5 Z"/></g>
<g><path style="opacity:1" fill="#c5794c" d="M 42.5,126.5 C 46.1981,127.341 49.8648,128.341 53.5,129.5C 49.2354,133.638 44.5687,137.305 39.5,140.5C 38.8919,135.586 39.8919,130.919 42.5,126.5 Z"/></g>
<g><path style="opacity:1" fill="#c37547" d="M 55.5,130.5 C 60.0134,131.172 64.0134,133.005 67.5,136C 60.5,141.667 53.5,147.333 46.5,153C 45.0563,153.781 43.723,153.614 42.5,152.5C 40.7146,149.727 39.8813,146.727 40,143.5C 45.65,139.678 50.8166,135.345 55.5,130.5 Z"/></g>
<g><path style="opacity:1" fill="#c37648" d="M 92.5,131.5 C 93.4959,131.414 94.3292,131.748 95,132.5C 97.208,135.554 98.208,138.887 98,142.5C 94.6027,145.568 90.936,148.235 87,150.5C 84.3917,148.65 82.225,146.316 80.5,143.5C 82.6655,141.507 84.9989,139.673 87.5,138C 88.9993,135.672 90.666,133.505 92.5,131.5 Z"/></g>
<g><path style="opacity:1" fill="#c4784b" d="M 68.5,137.5 C 71.787,138.264 74.4537,140.097 76.5,143C 71.5,147.333 66.5,151.667 61.5,156C 56.7133,156.879 52.0466,156.545 47.5,155C 54.9403,149.625 61.9403,143.791 68.5,137.5 Z"/></g>
<g><path style="opacity:1" fill="#fdfcfa" d="M 131.5,143.5 C 133.329,150.815 135.162,158.148 137,165.5C 135.91,157.201 134.743,148.868 133.5,140.5C 136.518,138.537 139.851,138.037 143.5,139C 157.941,150.366 162.775,164.866 158,182.5C 152.486,192.101 144.319,195.268 133.5,192C 129.76,190.71 126.593,188.543 124,185.5C 116.402,172.727 115.069,159.394 120,145.5C 123.447,141.18 127.28,140.513 131.5,143.5 Z"/></g>
<g><path style="opacity:1" fill="#c4784b" d="M 76.5,145.5 C 77.552,145.351 78.552,145.517 79.5,146C 80.6399,147.973 81.9733,149.807 83.5,151.5C 77.3827,154.073 71.0494,155.573 64.5,156C 68.6932,152.635 72.6932,149.135 76.5,145.5 Z"/></g>
<g><path style="opacity:1" fill="#e2baa3" d="M 133.5,140.5 C 134.743,148.868 135.91,157.201 137,165.5C 135.162,158.148 133.329,150.815 131.5,143.5C 132.167,142.5 132.833,141.5 133.5,140.5 Z"/></g>
</svg>
