<?xml version="1.0" encoding="UTF-8"?>
<!DOCTYPE svg PUBLIC "-//W3C//DTD SVG 1.1//EN" "http://www.w3.org/Graphics/SVG/1.1/DTD/svg11.dtd">
<svg xmlns="http://www.w3.org/2000/svg" version="1.1" width="232px" height="231px" style="shape-rendering:geometricPrecision; text-rendering:geometricPrecision; image-rendering:optimizeQuality; fill-rule:evenodd; clip-rule:evenodd" xmlns:xlink="http://www.w3.org/1999/xlink">
<g><path style="opacity:0.995" fill="#da4752" d="M 104.5,-0.5 C 111.833,-0.5 119.167,-0.5 126.5,-0.5C 188.304,9.97157 223.304,46.3049 231.5,108.5C 231.5,112.5 231.5,116.5 231.5,120.5C 223.552,184.115 187.885,220.781 124.5,230.5C 118.5,230.5 112.5,230.5 106.5,230.5C 43.5805,220.914 7.91379,184.581 -0.5,121.5C -0.5,117.167 -0.5,112.833 -0.5,108.5C 7.69571,46.3049 42.6957,9.97157 104.5,-0.5 Z"/></g>
<g><path style="opacity:1" fill="#fdf9fa" d="M 165.5,175.5 C 164.833,172.167 164.167,168.833 163.5,165.5C 161.593,170.167 159.26,175.333 156.5,181C 151.657,183.336 146.657,185.169 141.5,186.5C 140.667,176.84 139.834,167.173 139,157.5C 137.649,165.797 137.316,174.13 138,182.5C 141.305,185.751 140.471,186.917 135.5,186C 130.565,183.394 125.898,180.394 121.5,177C 118.208,176.104 115.875,177.271 114.5,180.5C 113.702,180.043 113.369,179.376 113.5,178.5C 112.679,174.873 111.346,171.54 109.5,168.5C 106.753,151.278 105.92,133.945 107,116.5C 108.937,98.665 111.77,80.9983 115.5,63.5C 116.775,61.3916 117.275,59.0583 117,56.5C 115.991,58.0249 115.491,59.6916 115.5,61.5C 111.128,70.6471 108.128,80.3137 106.5,90.5C 105.539,88.7354 105.205,86.7354 105.5,84.5C 106.815,69.9086 110.315,55.9086 116,42.5C 118.015,47.5186 121.182,51.6852 125.5,55C 166.438,75.0317 183.605,107.865 177,153.5C 176.033,162.438 172.2,169.771 165.5,175.5 Z"/></g>
<g><path style="opacity:1" fill="#fdf8f8" d="M 108.5,50.5 C 109.097,50.7352 109.43,51.2352 109.5,52C 99.8202,73.8658 94.1536,96.6992 92.5,120.5C 93.1424,137.786 95.6424,154.786 100,171.5C 101.999,177.024 104.832,182.024 108.5,186.5C 108.333,186.833 108.167,187.167 108,187.5C 105.017,185.516 102.35,183.183 100,180.5C 99.1268,180.735 98.2935,181.069 97.5,181.5C 92.5127,173.59 91.1794,174.59 93.5,184.5C 89.1869,184.452 85.1869,183.285 81.5,181C 74.5204,174.358 68.687,166.858 64,158.5C 63.3333,160.5 63.3333,162.5 64,164.5C 65.5484,165.914 66.215,167.58 66,169.5C 53.8763,159.185 49.8763,146.185 54,130.5C 55.9864,113.542 60.9864,97.5417 69,82.5C 72.5754,77.2004 76.7421,72.3671 81.5,68C 90.9056,62.6408 99.9056,56.8074 108.5,50.5 Z"/></g>
<g><path style="opacity:1" fill="#efafb3" d="M 115.5,63.5 C 115.5,62.8333 115.5,62.1667 115.5,61.5C 115.491,59.6916 115.991,58.0249 117,56.5C 117.275,59.0583 116.775,61.3916 115.5,63.5 Z"/></g>
<g><path style="opacity:1" fill="#e0636a" d="M 120.5,60.5 C 124.972,66.7062 127.139,73.7062 127,81.5C 121.987,75.4514 119.82,68.4514 120.5,60.5 Z"/></g>
<g><path style="opacity:1" fill="#dd5860" d="M 90.5,64.5 C 91.8734,64.3433 93.2068,64.51 94.5,65C 91.2402,71.3566 86.9069,76.8566 81.5,81.5C 80.3861,80.277 80.2195,78.9437 81,77.5C 84.6649,73.4919 87.8316,69.1586 90.5,64.5 Z"/></g>
<g><path style="opacity:1" fill="#db4e58" d="M 115.5,61.5 C 115.5,62.1667 115.5,62.8333 115.5,63.5C 111.77,80.9983 108.937,98.665 107,116.5C 105.92,133.945 106.753,151.278 109.5,168.5C 102.964,151.855 100.797,134.521 103,116.5C 103.677,107.752 104.843,99.0853 106.5,90.5C 108.128,80.3137 111.128,70.6471 115.5,61.5 Z"/></g>
<g><path style="opacity:1" fill="#de5a62" d="M 140.5,69.5 C 140.897,68.475 141.563,68.3083 142.5,69C 149.928,76.0221 155.762,84.1888 160,93.5C 160.991,95.4473 161.325,97.4473 161,99.5C 153.402,89.9544 146.569,79.9544 140.5,69.5 Z"/></g>
<g><path style="opacity:1" fill="#e0636a" d="M 88.5,84.5 C 89.3764,84.3691 90.0431,84.7025 90.5,85.5C 87.8711,96.988 86.3711,108.655 86,120.5C 85.0266,118.608 84.3599,116.608 84,114.5C 83.3333,107.5 83.3333,100.5 84,93.5C 85.0383,90.1853 86.5383,87.1853 88.5,84.5 Z"/></g>
<g><path style="opacity:1" fill="#e1666c" d="M 71.5,92.5 C 73.8059,96.227 74.8059,100.394 74.5,105C 74.6174,108.67 73.9507,112.17 72.5,115.5C 68.9676,107.976 68.6343,100.309 71.5,92.5 Z"/></g>
<g><path style="opacity:1" fill="#de5b63" d="M 146.5,99.5 C 150.338,100.346 152.838,102.679 154,106.5C 156.168,112.679 156.834,119.012 156,125.5C 152.528,116.914 149.361,108.247 146.5,99.5 Z"/></g>
<g><path style="opacity:1" fill="#de5c64" d="M 131.5,99.5 C 133.173,100.343 134.34,101.676 135,103.5C 135.706,111.208 135.372,118.875 134,126.5C 131.841,117.664 131.008,108.664 131.5,99.5 Z"/></g>
<g><path style="opacity:1" fill="#df5c64" d="M 117.5,111.5 C 119.067,112.681 119.901,114.347 120,116.5C 121.221,122.144 121.887,127.811 122,133.5C 119.597,131.695 117.93,129.362 117,126.5C 116.274,121.448 116.441,116.448 117.5,111.5 Z"/></g>
<g><path style="opacity:1" fill="#df5c64" d="M 162.5,113.5 C 166.667,115.467 169.167,118.8 170,123.5C 170.934,131.605 170.601,139.605 169,147.5C 167.286,139.932 166.286,132.265 166,124.5C 165.395,120.631 164.229,116.965 162.5,113.5 Z"/></g>
<g><path style="opacity:1" fill="#de5961" d="M 63.5,143.5 C 63.7678,145.099 63.4345,146.432 62.5,147.5C 58.7212,138.552 57.5545,129.219 59,119.5C 60,117.5 61,115.5 62,113.5C 62.5002,123.504 63.0002,133.504 63.5,143.5 Z"/></g>
<g><path style="opacity:1" fill="#e1676d" d="M 143.5,122.5 C 144.222,122.918 144.722,123.584 145,124.5C 147.081,131.625 146.914,138.625 144.5,145.5C 140.994,137.956 140.661,130.29 143.5,122.5 Z"/></g>
<g><path style="opacity:1" fill="#de5a62" d="M 74.5,131.5 C 75.1174,131.611 75.6174,131.944 76,132.5C 76.8378,140.043 78.5044,147.376 81,154.5C 81.6667,156.833 81.6667,159.167 81,161.5C 78.9289,157.697 76.5956,154.03 74,150.5C 73.2944,144.13 73.4611,137.797 74.5,131.5 Z"/></g>
<g><path style="opacity:1" fill="#de5c63" d="M 117.5,143.5 C 120.103,151.778 123.603,159.778 128,167.5C 128.667,168.5 128.667,169.5 128,170.5C 118.809,163.489 115.309,154.489 117.5,143.5 Z"/></g>
<g><path style="opacity:1" fill="#eda5aa" d="M 63.5,143.5 C 64.6225,145.288 64.7891,147.288 64,149.5C 63.2828,148.956 62.7828,148.289 62.5,147.5C 63.4345,146.432 63.7678,145.099 63.5,143.5 Z"/></g>
<g><path style="opacity:1" fill="#fae2e4" d="M 105.5,84.5 C 105.205,86.7354 105.539,88.7354 106.5,90.5C 104.843,99.0853 103.677,107.752 103,116.5C 100.797,134.521 102.964,151.855 109.5,168.5C 109.59,172.214 110.59,175.548 112.5,178.5C 113.135,181.493 113.301,184.493 113,187.5C 110.104,183.167 107.771,178.5 106,173.5C 98.8784,143.738 98.7117,114.072 105.5,84.5 Z"/></g>
<g><path style="opacity:1" fill="#dd555d" d="M 152.5,170.5 C 151.512,165.36 151.179,160.026 151.5,154.5C 151.372,152.345 151.872,150.345 153,148.5C 155.148,156.016 154.982,163.349 152.5,170.5 Z"/></g>
<g><path style="opacity:1" fill="#e88c93" d="M 151.5,154.5 C 151.179,160.026 151.512,165.36 152.5,170.5C 152.217,171.289 151.717,171.956 151,172.5C 150.181,166.319 150.347,160.319 151.5,154.5 Z"/></g>
<g><path style="opacity:1" fill="#f0b7bb" d="M 163.5,165.5 C 164.167,168.833 164.833,172.167 165.5,175.5C 165.44,176.043 165.107,176.376 164.5,176.5C 163.511,172.893 163.177,169.226 163.5,165.5 Z"/></g>
<g><path style="opacity:1" fill="#e8898e" d="M 109.5,168.5 C 111.346,171.54 112.679,174.873 113.5,178.5C 113.167,178.5 112.833,178.5 112.5,178.5C 110.59,175.548 109.59,172.214 109.5,168.5 Z"/></g>
</svg>
