<?xml version="1.0" encoding="UTF-8"?>
<!DOCTYPE svg PUBLIC "-//W3C//DTD SVG 1.1//EN" "http://www.w3.org/Graphics/SVG/1.1/DTD/svg11.dtd">
<svg xmlns="http://www.w3.org/2000/svg" version="1.1" width="232px" height="230px" style="shape-rendering:geometricPrecision; text-rendering:geometricPrecision; image-rendering:optimizeQuality; fill-rule:evenodd; clip-rule:evenodd" xmlns:xlink="http://www.w3.org/1999/xlink">
<g><path style="opacity:0.997" fill="#f47039" d="M 100.5,-0.5 C 110.5,-0.5 120.5,-0.5 130.5,-0.5C 181.106,8.5994 213.606,37.9327 228,87.5C 229.407,94.6076 230.574,101.608 231.5,108.5C 231.5,112.5 231.5,116.5 231.5,120.5C 223.785,180.882 190.118,217.215 130.5,229.5C 120.5,229.5 110.5,229.5 100.5,229.5C 95.6961,228.139 90.6961,227.139 85.5,226.5C 86.6835,220.299 89.3501,214.799 93.5,210C 99.7586,210.342 105.425,208.675 110.5,205C 114.864,201.492 119.197,197.992 123.5,194.5C 129.371,192.069 135.371,189.902 141.5,188C 140.833,187.833 140.167,187.667 139.5,187.5C 132.091,189.756 124.758,191.756 117.5,193.5C 113.389,193.522 109.389,194.189 105.5,195.5C 105.167,195.167 104.833,194.833 104.5,194.5C 106.953,191.759 109.286,188.925 111.5,186C 115.312,187.306 119.312,187.639 123.5,187C 131.012,184.073 138.346,180.906 145.5,177.5C 150.178,176.831 154.844,175.998 159.5,175C 153.954,174.53 148.621,175.03 143.5,176.5C 136.827,175.999 130.161,175.333 123.5,174.5C 125.126,173.01 126.792,171.51 128.5,170C 130.279,170.044 131.945,170.711 133.5,172C 137.5,172.667 141.5,172.667 145.5,172C 149.631,170.765 153.631,169.265 157.5,167.5C 159.167,167.5 160.833,167.5 162.5,167.5C 166.514,167.666 170.514,167.499 174.5,167C 172.655,165.872 170.655,165.372 168.5,165.5C 164.833,165.5 161.167,165.5 157.5,165.5C 152.188,164.288 146.855,163.121 141.5,162C 143.699,160.303 146.032,158.803 148.5,157.5C 151.289,160.643 154.789,161.976 159,161.5C 163.724,161.36 168.224,160.36 172.5,158.5C 191.052,159.79 191.052,159.124 172.5,156.5C 168.591,154.975 164.591,153.641 160.5,152.5C 164.476,148.989 168.809,148.156 173.5,150C 177.152,150.499 180.818,150.665 184.5,150.5C 187.85,150.665 191.183,150.498 194.5,150C 192.753,149.648 191.086,149.148 189.5,148.5C 186.673,148.416 184.006,147.75 181.5,146.5C 181.611,145.883 181.944,145.383 182.5,145C 186.469,144.147 190.469,143.481 194.5,143C 189.593,142.365 184.926,142.865 180.5,144.5C 179.761,144.631 179.094,144.464 178.5,144C 181.316,139.527 183.982,135.027 186.5,130.5C 182.542,133.285 178.709,136.285 175,139.5C 174.505,141.473 174.338,143.473 174.5,145.5C 169.789,146.126 165.289,147.459 161,149.5C 164.38,141.894 167.88,134.227 171.5,126.5C 165.888,131.939 160.055,137.272 154,142.5C 151.718,145.273 151.218,148.273 152.5,151.5C 149.439,153.869 146.106,155.369 142.5,156C 146.088,147.992 148.921,139.826 151,131.5C 146.438,138.069 141.105,144.069 135,149.5C 132.483,153.47 131.983,157.636 133.5,162C 130.833,164 128.167,166 125.5,168C 124.517,168.591 123.85,168.257 123.5,167C 125.845,161.395 126.845,155.562 126.5,149.5C 129.634,143.928 131.468,137.928 132,131.5C 129.923,137.234 127.757,142.901 125.5,148.5C 119.76,154.308 115.26,160.974 112,168.5C 111.022,171.669 111.522,174.503 113.5,177C 109.667,180.833 105.833,184.667 102,188.5C 101.667,180.5 101.333,172.5 101,164.5C 100.667,164.167 100.333,163.833 100,163.5C 91.5817,173.079 88.2484,184.079 90,196.5C 91.0217,197.354 91.8551,198.354 92.5,199.5C 86.9776,207.22 81.9776,215.22 77.5,223.5C 69.634,220.548 61.9673,217.214 54.5,213.5C 56.3729,201.673 59.0396,190.007 62.5,178.5C 68.4853,180.417 73.8186,179.25 78.5,175C 87.2134,166.288 94.3801,156.454 100,145.5C 105.097,139.895 110.597,134.895 116.5,130.5C 109.786,134.367 103.453,138.867 97.5,144C 87.2151,148.474 77.5484,153.974 68.5,160.5C 68.1667,160 67.8333,159.5 67.5,159C 69.1438,154.571 70.4771,150.071 71.5,145.5C 75.1817,145.665 78.8484,145.499 82.5,145C 92.9964,138.216 100.83,129.049 106,117.5C 111.433,111.567 117.266,106.233 123.5,101.5C 117.122,105.031 111.122,109.198 105.5,114C 96.5603,117.468 88.227,121.968 80.5,127.5C 80.6043,124.16 81.6043,120.827 83.5,117.5C 87.1224,116.675 90.789,116.175 94.5,116C 103.081,109.748 109.915,101.915 115,92.5C 119.478,88.3654 123.978,84.3654 128.5,80.5C 123.882,82.8148 119.549,85.6482 115.5,89C 107.771,91.6979 100.438,95.1979 93.5,99.5C 93.8545,95.1035 95.6879,91.1035 99,87.5C 103.949,89.2343 108.449,88.4009 112.5,85C 118.111,78.7217 122.944,71.8884 127,64.5C 130.692,61.6352 134.192,58.6352 137.5,55.5C 133.458,57.3623 129.792,59.8623 126.5,63C 120.342,65.9119 114.342,69.0785 108.5,72.5C 108.947,68.7661 110.781,65.4328 114,62.5C 115.126,63.9436 116.626,64.6102 118.5,64.5C 127.34,60.997 134.007,54.997 138.5,46.5C 142.675,43.1648 147.008,39.9981 151.5,37C 149.402,37.0322 147.402,37.6989 145.5,39C 142.98,40.6971 140.647,42.5305 138.5,44.5C 132.582,45.8763 127.082,48.2097 122,51.5C 124.899,45.8928 128.732,40.7261 133.5,36C 132.092,35.6848 130.759,36.0181 129.5,37C 126.333,40.8333 123.167,44.6667 120,48.5C 117.921,38.7742 115.754,29.1076 113.5,19.5C 113.116,15.414 112.283,11.414 111,7.5C 111.318,13.7878 111.484,20.1211 111.5,26.5C 107.972,35.4908 107.805,44.4908 111,53.5C 111.903,54.7014 113.069,55.5348 114.5,56C 111,60.8333 107.5,65.6667 104,70.5C 101.679,59.54 98.5121,48.8733 94.5,38.5C 93.6503,33.7679 92.4836,29.1012 91,24.5C 91.2713,30.0055 92.1046,35.3388 93.5,40.5C 92.8308,45.5143 91.9975,50.5143 91,55.5C 89.9021,62.3846 90.5687,69.0513 93,75.5C 94.5578,77.3589 96.3911,78.8589 98.5,80C 95.7917,84.5843 92.9584,89.0843 90,93.5C 86.9191,82.0975 83.7525,70.7641 80.5,59.5C 79.7838,53.7528 78.6172,48.0861 77,42.5C 77.6587,50.4543 78.1587,58.4543 78.5,66.5C 74.8838,76.9706 74.0505,87.6372 76,98.5C 77.9782,101.645 80.4782,104.312 83.5,106.5C 81.6667,110.167 79.8333,113.833 78,117.5C 74.0482,106.475 70.2148,95.4752 66.5,84.5C 65.6304,78.355 64.1304,72.355 62,66.5C 62.8555,73.963 64.0222,81.2964 65.5,88.5C 63.4693,97.2139 62.136,106.047 61.5,115C 61.2125,123.406 63.8792,130.573 69.5,136.5C 68.4329,139.534 67.2663,142.534 66,145.5C 62.5134,133.869 58.3467,122.536 53.5,111.5C 52.2974,104.023 50.4641,96.6898 48,89.5C 49.4827,98.7424 50.6494,108.076 51.5,117.5C 48.7341,129.002 47.9007,140.669 49,152.5C 50.0587,155.618 51.3921,158.618 53,161.5C 55.3099,163.199 57.1433,165.199 58.5,167.5C 54.4945,180.867 50.8278,194.201 47.5,207.5C 18.2106,185.928 2.21056,156.928 -0.5,120.5C -0.5,116.5 -0.5,112.5 -0.5,108.5C 4.93626,56.5558 32.2696,21.7224 81.5,4C 87.9293,2.30755 94.2627,0.807552 100.5,-0.5 Z"/></g>
<g><path style="opacity:1" fill="#fabea5" d="M 113.5,19.5 C 112.833,21.8333 112.167,24.1667 111.5,26.5C 111.484,20.1211 111.318,13.7878 111,7.5C 112.283,11.414 113.116,15.414 113.5,19.5 Z"/></g>
<g><path style="opacity:0.999" fill="#fff7f4" d="M 113.5,19.5 C 115.754,29.1076 117.921,38.7742 120,48.5C 123.167,44.6667 126.333,40.8333 129.5,37C 130.759,36.0181 132.092,35.6848 133.5,36C 128.732,40.7261 124.899,45.8928 122,51.5C 127.082,48.2097 132.582,45.8763 138.5,44.5C 138.5,45.1667 138.5,45.8333 138.5,46.5C 134.007,54.997 127.34,60.997 118.5,64.5C 116.626,64.6102 115.126,63.9436 114,62.5C 110.781,65.4328 108.947,68.7661 108.5,72.5C 114.342,69.0785 120.342,65.9119 126.5,63C 129.792,59.8623 133.458,57.3623 137.5,55.5C 134.192,58.6352 130.692,61.6352 127,64.5C 122.944,71.8884 118.111,78.7217 112.5,85C 108.449,88.4009 103.949,89.2343 99,87.5C 95.6879,91.1035 93.8545,95.1035 93.5,99.5C 100.438,95.1979 107.771,91.6979 115.5,89C 119.549,85.6482 123.882,82.8148 128.5,80.5C 123.978,84.3654 119.478,88.3654 115,92.5C 109.915,101.915 103.081,109.748 94.5,116C 90.789,116.175 87.1224,116.675 83.5,117.5C 81.6043,120.827 80.6043,124.16 80.5,127.5C 88.227,121.968 96.5603,117.468 105.5,114C 111.122,109.198 117.122,105.031 123.5,101.5C 117.266,106.233 111.433,111.567 106,117.5C 100.83,129.049 92.9964,138.216 82.5,145C 78.8484,145.499 75.1817,145.665 71.5,145.5C 70.4771,150.071 69.1438,154.571 67.5,159C 67.8333,159.5 68.1667,160 68.5,160.5C 77.5484,153.974 87.2151,148.474 97.5,144C 103.453,138.867 109.786,134.367 116.5,130.5C 110.597,134.895 105.097,139.895 100,145.5C 94.3801,156.454 87.2134,166.288 78.5,175C 73.8186,179.25 68.4853,180.417 62.5,178.5C 59.0396,190.007 56.3729,201.673 54.5,213.5C 51.1125,212.652 48.7791,210.652 47.5,207.5C 50.8278,194.201 54.4945,180.867 58.5,167.5C 57.1433,165.199 55.3099,163.199 53,161.5C 51.3921,158.618 50.0587,155.618 49,152.5C 47.9007,140.669 48.7341,129.002 51.5,117.5C 52.1667,115.5 52.8333,113.5 53.5,111.5C 58.3467,122.536 62.5134,133.869 66,145.5C 67.2663,142.534 68.4329,139.534 69.5,136.5C 63.8792,130.573 61.2125,123.406 61.5,115C 62.136,106.047 63.4693,97.2139 65.5,88.5C 65.2322,86.901 65.5655,85.5676 66.5,84.5C 70.2148,95.4752 74.0482,106.475 78,117.5C 79.8333,113.833 81.6667,110.167 83.5,106.5C 80.4782,104.312 77.9782,101.645 76,98.5C 74.0505,87.6372 74.8838,76.9706 78.5,66.5C 79.1667,64.1667 79.8333,61.8333 80.5,59.5C 83.7525,70.7641 86.9191,82.0975 90,93.5C 92.9584,89.0843 95.7917,84.5843 98.5,80C 96.3911,78.8589 94.5578,77.3589 93,75.5C 90.5687,69.0513 89.9021,62.3846 91,55.5C 91.9975,50.5143 92.8308,45.5143 93.5,40.5C 93.3284,39.5084 93.6618,38.8417 94.5,38.5C 98.5121,48.8733 101.679,59.54 104,70.5C 107.5,65.6667 111,60.8333 114.5,56C 113.069,55.5348 111.903,54.7014 111,53.5C 107.805,44.4908 107.972,35.4908 111.5,26.5C 112.167,24.1667 112.833,21.8333 113.5,19.5 Z"/></g>
<g><path style="opacity:1" fill="#fbc8b2" d="M 94.5,38.5 C 93.6618,38.8417 93.3284,39.5084 93.5,40.5C 92.1046,35.3388 91.2713,30.0055 91,24.5C 92.4836,29.1012 93.6503,33.7679 94.5,38.5 Z"/></g>
<g><path style="opacity:1" fill="#fdd9ca" d="M 138.5,46.5 C 138.5,45.8333 138.5,45.1667 138.5,44.5C 140.647,42.5305 142.98,40.6971 145.5,39C 147.402,37.6989 149.402,37.0322 151.5,37C 147.008,39.9981 142.675,43.1648 138.5,46.5 Z"/></g>
<g><path style="opacity:1" fill="#fccebb" d="M 80.5,59.5 C 79.8333,61.8333 79.1667,64.1667 78.5,66.5C 78.1587,58.4543 77.6587,50.4543 77,42.5C 78.6172,48.0861 79.7838,53.7528 80.5,59.5 Z"/></g>
<g><path style="opacity:1" fill="#fab79a" d="M 137.5,55.5 C 138.002,53.9153 139.002,53.4153 140.5,54C 139.756,55.0386 138.756,55.5386 137.5,55.5 Z"/></g>
<g><path style="opacity:1" fill="#fbc6af" d="M 66.5,84.5 C 65.5655,85.5676 65.2322,86.901 65.5,88.5C 64.0222,81.2964 62.8555,73.963 62,66.5C 64.1304,72.355 65.6304,78.355 66.5,84.5 Z"/></g>
<g><path style="opacity:1" fill="#fabea5" d="M 128.5,80.5 C 129.665,78.5839 131.332,77.7506 133.5,78C 132.09,79.3717 130.423,80.205 128.5,80.5 Z"/></g>
<g><path style="opacity:1" fill="#f9b294" d="M 123.5,101.5 C 124.002,99.9153 125.002,99.4153 126.5,100C 125.756,101.039 124.756,101.539 123.5,101.5 Z"/></g>
<g><path style="opacity:1" fill="#fccfbd" d="M 53.5,111.5 C 52.8333,113.5 52.1667,115.5 51.5,117.5C 50.6494,108.076 49.4827,98.7424 48,89.5C 50.4641,96.6898 52.2974,104.023 53.5,111.5 Z"/></g>
<g><path style="opacity:1" fill="#fbc6b0" d="M 171.5,126.5 C 171.461,125.244 171.961,124.244 173,123.5C 173.585,124.998 173.085,125.998 171.5,126.5 Z"/></g>
<g><path style="opacity:1" fill="#fab89d" d="M 116.5,130.5 C 117.254,128.554 118.588,127.721 120.5,128C 119.529,129.481 118.196,130.315 116.5,130.5 Z"/></g>
<g><path style="opacity:1" fill="#fbbfa6" d="M 153.5,125.5 C 154.465,126.721 154.298,128.054 153,129.5C 152.421,128.072 152.588,126.738 153.5,125.5 Z"/></g>
<g><path style="opacity:1" fill="#fab496" d="M 186.5,130.5 C 186.461,129.244 186.961,128.244 188,127.5C 188.585,128.998 188.085,129.998 186.5,130.5 Z"/></g>
<g><path style="opacity:1" fill="#fff6f3" d="M 171.5,126.5 C 167.88,134.227 164.38,141.894 161,149.5C 165.289,147.459 169.789,146.126 174.5,145.5C 174.338,143.473 174.505,141.473 175,139.5C 178.709,136.285 182.542,133.285 186.5,130.5C 183.982,135.027 181.316,139.527 178.5,144C 179.094,144.464 179.761,144.631 180.5,144.5C 178.969,145.925 179.302,146.591 181.5,146.5C 184.006,147.75 186.673,148.416 189.5,148.5C 187.833,149.167 186.167,149.833 184.5,150.5C 180.818,150.665 177.152,150.499 173.5,150C 168.809,148.156 164.476,148.989 160.5,152.5C 164.591,153.641 168.591,154.975 172.5,156.5C 172.5,157.167 172.5,157.833 172.5,158.5C 168.224,160.36 163.724,161.36 159,161.5C 154.789,161.976 151.289,160.643 148.5,157.5C 146.032,158.803 143.699,160.303 141.5,162C 146.855,163.121 152.188,164.288 157.5,165.5C 157.5,166.167 157.5,166.833 157.5,167.5C 153.631,169.265 149.631,170.765 145.5,172C 141.5,172.667 137.5,172.667 133.5,172C 131.945,170.711 130.279,170.044 128.5,170C 126.792,171.51 125.126,173.01 123.5,174.5C 130.161,175.333 136.827,175.999 143.5,176.5C 144.492,176.328 145.158,176.662 145.5,177.5C 138.346,180.906 131.012,184.073 123.5,187C 119.312,187.639 115.312,187.306 111.5,186C 109.286,188.925 106.953,191.759 104.5,194.5C 104.833,194.833 105.167,195.167 105.5,195.5C 109.389,194.189 113.389,193.522 117.5,193.5C 119.735,193.205 121.735,193.539 123.5,194.5C 119.197,197.992 114.864,201.492 110.5,205C 105.425,208.675 99.7586,210.342 93.5,210C 89.3501,214.799 86.6835,220.299 85.5,226.5C 82.6027,225.871 79.936,224.871 77.5,223.5C 81.9776,215.22 86.9776,207.22 92.5,199.5C 91.8551,198.354 91.0217,197.354 90,196.5C 88.2484,184.079 91.5817,173.079 100,163.5C 100.333,163.833 100.667,164.167 101,164.5C 101.333,172.5 101.667,180.5 102,188.5C 105.833,184.667 109.667,180.833 113.5,177C 111.522,174.503 111.022,171.669 112,168.5C 115.26,160.974 119.76,154.308 125.5,148.5C 126.167,148.5 126.5,148.833 126.5,149.5C 126.845,155.562 125.845,161.395 123.5,167C 123.85,168.257 124.517,168.591 125.5,168C 128.167,166 130.833,164 133.5,162C 131.983,157.636 132.483,153.47 135,149.5C 141.105,144.069 146.438,138.069 151,131.5C 148.921,139.826 146.088,147.992 142.5,156C 146.106,155.369 149.439,153.869 152.5,151.5C 151.218,148.273 151.718,145.273 154,142.5C 160.055,137.272 165.888,131.939 171.5,126.5 Z"/></g>
<g><path style="opacity:1" fill="#fccbb8" d="M 126.5,149.5 C 126.5,148.833 126.167,148.5 125.5,148.5C 127.757,142.901 129.923,137.234 132,131.5C 131.468,137.928 129.634,143.928 126.5,149.5 Z"/></g>
<g><path style="opacity:1" fill="#fbbfa7" d="M 181.5,146.5 C 179.302,146.591 178.969,145.925 180.5,144.5C 184.926,142.865 189.593,142.365 194.5,143C 190.469,143.481 186.469,144.147 182.5,145C 181.944,145.383 181.611,145.883 181.5,146.5 Z"/></g>
<g><path style="opacity:1" fill="#f9b092" d="M 189.5,148.5 C 191.086,149.148 192.753,149.648 194.5,150C 191.183,150.498 187.85,150.665 184.5,150.5C 186.167,149.833 187.833,149.167 189.5,148.5 Z"/></g>
<g><path style="opacity:1" fill="#fbc5ae" d="M 172.5,156.5 C 191.052,159.124 191.052,159.79 172.5,158.5C 172.5,157.833 172.5,157.167 172.5,156.5 Z"/></g>
<g><path style="opacity:1" fill="#fbcfbd" d="M 157.5,165.5 C 161.167,165.5 164.833,165.5 168.5,165.5C 166.5,166.167 164.5,166.833 162.5,167.5C 160.833,167.5 159.167,167.5 157.5,167.5C 157.5,166.833 157.5,166.167 157.5,165.5 Z"/></g>
<g><path style="opacity:1" fill="#f8a683" d="M 168.5,165.5 C 170.655,165.372 172.655,165.872 174.5,167C 170.514,167.499 166.514,167.666 162.5,167.5C 164.5,166.833 166.5,166.167 168.5,165.5 Z"/></g>
<g><path style="opacity:1" fill="#fbc4ae" d="M 145.5,177.5 C 145.158,176.662 144.492,176.328 143.5,176.5C 148.621,175.03 153.954,174.53 159.5,175C 154.844,175.998 150.178,176.831 145.5,177.5 Z"/></g>
<g><path style="opacity:1" fill="#fccebb" d="M 123.5,194.5 C 121.735,193.539 119.735,193.205 117.5,193.5C 124.758,191.756 132.091,189.756 139.5,187.5C 140.167,187.667 140.833,187.833 141.5,188C 135.371,189.902 129.371,192.069 123.5,194.5 Z"/></g>
</svg>
