<?xml version="1.0" encoding="UTF-8"?>
<!DOCTYPE svg PUBLIC "-//W3C//DTD SVG 1.1//EN" "http://www.w3.org/Graphics/SVG/1.1/DTD/svg11.dtd">
<svg xmlns="http://www.w3.org/2000/svg" version="1.1" width="232px" height="230px" style="shape-rendering:geometricPrecision; text-rendering:geometricPrecision; image-rendering:optimizeQuality; fill-rule:evenodd; clip-rule:evenodd" xmlns:xlink="http://www.w3.org/1999/xlink">
<g><path style="opacity:0.991" fill="#f68d2f" d="M 101.5,-0.5 C 110.833,-0.5 120.167,-0.5 129.5,-0.5C 189.69,11.3554 223.69,47.6887 231.5,108.5C 231.5,112.5 231.5,116.5 231.5,120.5C 226.158,172.02 199.158,206.854 150.5,225C 144.05,226.585 137.717,228.085 131.5,229.5C 120.833,229.5 110.167,229.5 99.5,229.5C 54.3137,220.974 23.147,195.307 6,152.5C 2.6322,141.929 0.465537,131.263 -0.5,120.5C -0.5,116.5 -0.5,112.5 -0.5,108.5C 7.31049,47.6887 41.3105,11.3554 101.5,-0.5 Z"/></g>
<g><path style="opacity:1" fill="#fefcfa" d="M 154.5,83.5 C 154.5,86.8333 154.5,90.1667 154.5,93.5C 152.5,93.5 150.5,93.5 148.5,93.5C 131.549,91.7361 117.383,97.0694 106,109.5C 102.139,98.1071 96.4728,87.7738 89,78.5C 88.8916,72.691 90.5582,67.3577 94,62.5C 98.7459,54.1858 104.579,46.6858 111.5,40C 122.112,32.0115 131.945,32.8448 141,42.5C 149.593,54.7795 154.093,68.4462 154.5,83.5 Z"/></g>
<g><path style="opacity:1" fill="#f69239" d="M 122.5,43.5 C 128.113,42.079 130.28,44.079 129,49.5C 120.539,54.0775 115.205,61.0775 113,70.5C 109.302,72.1692 106.802,71.0026 105.5,67C 108.374,56.9863 114.041,49.153 122.5,43.5 Z"/></g>
<g><path style="opacity:1" fill="#fefcfb" d="M 56.5,68.5 C 62.2184,68.5197 67.5517,70.0197 72.5,73C 91.2437,89.5468 100.077,110.38 99,135.5C 93.5517,159.257 78.7184,169.09 54.5,165C 40.7094,158.938 32.5427,148.438 30,133.5C 27.9818,112.569 32.9818,93.5687 45,76.5C 48.4821,73.1608 52.3155,70.4942 56.5,68.5 Z"/></g>
<g><path style="opacity:1" fill="#f69138" d="M 57.5,77.5 C 62.4943,77.329 64.3276,79.6624 63,84.5C 55.7134,90.064 51.2134,97.3974 49.5,106.5C 45.2266,108.518 42.8933,107.185 42.5,102.5C 44.2102,92.0614 49.2102,83.728 57.5,77.5 Z"/></g>
<g><path style="opacity:1" fill="#fbd4b1" d="M 154.5,83.5 C 155.482,86.9619 155.815,90.6286 155.5,94.5C 152.941,94.8016 150.607,94.4682 148.5,93.5C 150.5,93.5 152.5,93.5 154.5,93.5C 154.5,90.1667 154.5,86.8333 154.5,83.5 Z"/></g>
<g><path style="opacity:1" fill="#fefcfb" d="M 140.5,101.5 C 154.182,100.955 167.516,102.788 180.5,107C 189.931,110.438 196.765,116.604 201,125.5C 201.591,132.069 199.924,138.069 196,143.5C 178.68,163.581 156.847,172.747 130.5,171C 110.482,164.303 101.982,150.47 105,129.5C 111.118,112.879 122.951,103.545 140.5,101.5 Z"/></g>
<g><path style="opacity:1" fill="#f69138" d="M 162.5,113.5 C 174.754,112.381 184.587,116.714 192,126.5C 192.664,131.496 190.498,133.33 185.5,132C 179.862,125.181 172.529,121.514 163.5,121C 161.163,118.806 160.83,116.306 162.5,113.5 Z"/></g>
</svg>
