<?xml version="1.0" encoding="UTF-8"?>
<!DOCTYPE svg PUBLIC "-//W3C//DTD SVG 1.1//EN" "http://www.w3.org/Graphics/SVG/1.1/DTD/svg11.dtd">
<svg xmlns="http://www.w3.org/2000/svg" version="1.1" width="232px" height="231px" style="shape-rendering:geometricPrecision; text-rendering:geometricPrecision; image-rendering:optimizeQuality; fill-rule:evenodd; clip-rule:evenodd" xmlns:xlink="http://www.w3.org/1999/xlink">
<g><path style="opacity:0.992" fill="#6d351e" d="M 108.5,-0.5 C 113.167,-0.5 117.833,-0.5 122.5,-0.5C 177.269,5.75801 212.436,35.4247 228,88.5C 229.599,96.5867 230.766,104.587 231.5,112.5C 231.5,114.5 231.5,116.5 231.5,118.5C 225.091,180.911 191.091,218.245 129.5,230.5C 120.167,230.5 110.833,230.5 101.5,230.5C 39.9093,218.245 5.90927,180.911 -0.5,118.5C -0.5,116.5 -0.5,114.5 -0.5,112.5C 3.60007,59.4866 30.6001,23.6533 80.5,5C 89.8288,2.3938 99.1622,0.560471 108.5,-0.5 Z"/></g>
<g><path style="opacity:1" fill="#fcfbfb" d="M 145.5,42.5 C 151.324,41.5884 156.49,42.9218 161,46.5C 161.667,49.1667 161.667,51.8333 161,54.5C 156.667,57.5 152.333,60.5 148,63.5C 145.832,69.6837 145.165,76.017 146,82.5C 164.073,105.234 170.073,130.9 164,159.5C 160.837,167.32 156.837,174.653 152,181.5C 149.766,183.7 147.266,185.533 144.5,187C 129.093,189.216 113.759,188.882 98.5,186C 84.9835,173.165 78.1502,157.331 78,138.5C 66.4417,123.169 62.7751,106.169 67,87.5C 71.422,76.744 79.2553,69.9107 90.5,67C 83.8494,56.5771 86.8494,50.5771 99.5,49C 107.5,48.3333 115.5,48.3333 123.5,49C 114.829,50.0511 106.162,51.3844 97.5,53C 95.0426,54.5123 95.0426,55.8456 97.5,57C 100.833,57.6667 104.167,57.6667 107.5,57C 119.934,51.272 132.6,46.4387 145.5,42.5 Z"/></g>
<g><path style="opacity:1" fill="#743d27" d="M 102.5,67.5 C 104.792,67.2436 106.959,67.5769 109,68.5C 109.667,75.1667 109.667,81.8333 109,88.5C 101.934,100.173 96.1003,112.506 91.5,125.5C 90.675,126.386 89.675,126.719 88.5,126.5C 89.8666,112.758 94.3666,100.091 102,88.5C 101.397,81.4451 101.564,74.4451 102.5,67.5 Z"/></g>
<g><path style="opacity:1" fill="#713a24" d="M 89.5,76.5 C 91.1439,76.2865 92.6439,76.6198 94,77.5C 94.6667,80.8333 94.6667,84.1667 94,87.5C 86.6307,99.2319 81.7974,111.899 79.5,125.5C 73.444,116.39 71.2773,106.39 73,95.5C 75.8728,86.7997 81.3728,80.4664 89.5,76.5 Z"/></g>
</svg>
