<?xml version="1.0" encoding="UTF-8"?>
<!DOCTYPE svg PUBLIC "-//W3C//DTD SVG 1.1//EN" "http://www.w3.org/Graphics/SVG/1.1/DTD/svg11.dtd">
<svg xmlns="http://www.w3.org/2000/svg" version="1.1" width="232px" height="231px" style="shape-rendering:geometricPrecision; text-rendering:geometricPrecision; image-rendering:optimizeQuality; fill-rule:evenodd; clip-rule:evenodd" xmlns:xlink="http://www.w3.org/1999/xlink">
<g><path style="opacity:0.991" fill="#05a75b" d="M 106.5,-0.5 C 112.5,-0.5 118.5,-0.5 124.5,-0.5C 187.885,9.21853 223.552,45.8852 231.5,109.5C 231.5,113.5 231.5,117.5 231.5,121.5C 223.304,183.695 188.304,220.028 126.5,230.5C 119.167,230.5 111.833,230.5 104.5,230.5C 42.6957,220.028 7.69571,183.695 -0.5,121.5C -0.5,117.167 -0.5,112.833 -0.5,108.5C 7.90977,45.4235 43.5764,9.09013 106.5,-0.5 Z"/></g>
<g><path style="opacity:1" fill="#fbfdfc" d="M 112.5,100.5 C 111.833,99.1667 111.167,97.8333 110.5,96.5C 108.513,80.4227 106.013,64.4227 103,48.5C 103.837,64.2081 105.337,79.8748 107.5,95.5C 107.784,97.4147 107.451,99.0813 106.5,100.5C 85.7979,95.6405 75.9645,82.6405 77,61.5C 79.5911,45.9758 86.5911,32.9758 98,22.5C 115.228,31.296 126.562,44.9627 132,63.5C 132.724,79.6171 126.224,91.9504 112.5,100.5 Z"/></g>
<g><path style="opacity:1" fill="#3fb576" d="M 110.5,96.5 C 110.762,97.9778 110.429,99.3112 109.5,100.5C 108.83,98.7086 108.163,97.0419 107.5,95.5C 105.337,79.8748 103.837,64.2081 103,48.5C 106.013,64.4227 108.513,80.4227 110.5,96.5 Z"/></g>
<g><path style="opacity:1" fill="#fbfdfc" d="M 117.5,120.5 C 117.5,120.167 117.5,119.833 117.5,119.5C 127.986,115.344 138.319,111.01 148.5,106.5C 137.924,109.025 127.59,112.359 117.5,116.5C 116.532,114.393 116.198,112.059 116.5,109.5C 118.635,95.8654 126.301,87.032 139.5,83C 153.097,81.2108 166.097,83.2108 178.5,89C 180.666,90.0024 182.333,91.5024 183.5,93.5C 180.243,103.915 175.076,113.249 168,121.5C 150.737,137.821 133.904,137.488 117.5,120.5 Z"/></g>
<g><path style="opacity:1" fill="#fbfdfc" d="M 106.5,117.5 C 105.081,118.451 103.415,118.784 101.5,118.5C 93.1504,118.021 84.8171,117.355 76.5,116.5C 71.7254,114.948 66.7254,114.448 61.5,115C 66.1603,115.943 70.8269,116.777 75.5,117.5C 85.4749,119.116 95.4749,120.449 105.5,121.5C 105.5,122.167 105.5,122.833 105.5,123.5C 94.3197,141.743 79.3197,145.577 60.5,135C 51.3668,128.699 43.7001,120.866 37.5,111.5C 50.1097,97.5272 65.7763,91.3606 84.5,93C 96.1916,97.1945 103.525,105.361 106.5,117.5 Z"/></g>
<g><path style="opacity:1" fill="#94d9b9" d="M 107.5,95.5 C 108.163,97.0419 108.83,98.7086 109.5,100.5C 110.429,99.3112 110.762,97.9778 110.5,96.5C 111.167,97.8333 111.833,99.1667 112.5,100.5C 112.5,101.167 112.167,101.5 111.5,101.5C 110.5,101.5 109.5,101.5 108.5,101.5C 107.508,101.672 106.842,101.338 106.5,100.5C 107.451,99.0813 107.784,97.4147 107.5,95.5 Z"/></g>
<g><path style="opacity:1" fill="#dbf2e7" d="M 108.5,101.5 C 109.5,101.5 110.5,101.5 111.5,101.5C 112.023,106.904 113.023,112.237 114.5,117.5C 115.168,114.694 115.834,112.028 116.5,109.5C 116.198,112.059 116.532,114.393 117.5,116.5C 116.375,117.652 116.375,118.652 117.5,119.5C 117.5,119.833 117.5,120.167 117.5,120.5C 116.5,120.5 115.5,120.5 114.5,120.5C 116.001,135.851 112.668,150.018 104.5,163C 103.668,163.688 103.002,163.521 102.5,162.5C 109.995,150.202 112.995,136.869 111.5,122.5C 110.282,121.839 108.949,121.172 107.5,120.5C 107.957,119.702 108.624,119.369 109.5,119.5C 110.097,119.265 110.43,118.765 110.5,118C 109.751,112.507 109.084,107.007 108.5,101.5 Z"/></g>
<g><path style="opacity:1" fill="#80d1a9" d="M 148.5,106.5 C 153.193,103.871 158.193,101.705 163.5,100C 165.447,99.0087 167.447,98.6753 169.5,99C 162.668,102.088 155.668,104.588 148.5,106.5 Z"/></g>
<g><path style="opacity:1" fill="#30b16e" d="M 148.5,106.5 C 138.319,111.01 127.986,115.344 117.5,119.5C 116.375,118.652 116.375,117.652 117.5,116.5C 127.59,112.359 137.924,109.025 148.5,106.5 Z"/></g>
<g><path style="opacity:1" fill="#85d3ad" d="M 76.5,116.5 C 75.8333,116.5 75.5,116.833 75.5,117.5C 70.8269,116.777 66.1603,115.943 61.5,115C 66.7254,114.448 71.7254,114.948 76.5,116.5 Z"/></g>
<g><path style="opacity:1" fill="#2daf6b" d="M 75.5,117.5 C 75.5,116.833 75.8333,116.5 76.5,116.5C 84.8171,117.355 93.1504,118.021 101.5,118.5C 103.042,119.163 104.709,119.83 106.5,120.5C 106.376,121.107 106.043,121.44 105.5,121.5C 95.4749,120.449 85.4749,119.116 75.5,117.5 Z"/></g>
<g><path style="opacity:1" fill="#9ddcbe" d="M 106.5,117.5 C 107.71,117.932 108.71,118.599 109.5,119.5C 108.624,119.369 107.957,119.702 107.5,120.5C 108.949,121.172 110.282,121.839 111.5,122.5C 109.379,122.325 107.379,122.659 105.5,123.5C 105.5,122.833 105.5,122.167 105.5,121.5C 106.043,121.44 106.376,121.107 106.5,120.5C 104.709,119.83 103.042,119.163 101.5,118.5C 103.415,118.784 105.081,118.451 106.5,117.5 Z"/></g>
<g><path style="opacity:1" fill="#f1f9f5" d="M 43.5,173.5 C 43.2155,171.585 43.5489,169.919 44.5,168.5C 64.193,178.438 84.5264,179.938 105.5,173C 118.343,169.941 131.01,166.274 143.5,162C 155.235,158.639 165.901,160.639 175.5,168C 181.771,174.101 187.771,180.268 193.5,186.5C 185.244,186.509 176.91,186.676 168.5,187C 150.442,191.464 132.776,197.13 115.5,204C 107.75,204.869 100.083,206.202 92.5,208C 71.3108,211.739 55.8108,204.239 46,185.5C 44.2613,181.689 43.428,177.689 43.5,173.5 Z"/></g>
<g><path style="opacity:1" fill="#17aa60" d="M 153.5,163.5 C 161.014,163.174 166.847,166.174 171,172.5C 173.5,183.333 169.333,187.5 158.5,185C 150.742,181.65 147.575,175.816 149,167.5C 150.397,165.93 151.897,164.596 153.5,163.5 Z"/></g>
<g><path style="opacity:1" fill="#17aa60" d="M 130.5,168.5 C 143.431,168.593 149.598,174.927 149,187.5C 146.337,191.725 142.504,193.225 137.5,192C 128.992,189.173 124.825,183.339 125,174.5C 126.36,171.977 128.193,169.977 130.5,168.5 Z"/></g>
<g><path style="opacity:1" fill="#7ed1a9" d="M 44.5,168.5 C 43.5489,169.919 43.2155,171.585 43.5,173.5C 42.3709,171.372 42.2042,169.039 43,166.5C 43.7172,167.044 44.2172,167.711 44.5,168.5 Z"/></g>
<g><path style="opacity:1" fill="#13a95f" d="M 107.5,176.5 C 120.362,176.526 126.528,182.859 126,195.5C 125.215,197.286 124.049,198.786 122.5,200C 108.052,201.552 101.552,195.052 103,180.5C 104.397,178.93 105.897,177.596 107.5,176.5 Z"/></g>
<g><path style="opacity:1" fill="#14a960" d="M 59.5,178.5 C 69.4557,178.955 75.1224,184.122 76.5,194C 76.6951,196.352 76.0284,198.352 74.5,200C 65.4321,203.3 58.9321,200.467 55,191.5C 53.243,185.825 54.743,181.492 59.5,178.5 Z"/></g>
<g><path style="opacity:1" fill="#13a95f" d="M 81.5,179.5 C 92.8209,178.505 99.4876,183.505 101.5,194.5C 101.622,200.213 98.7884,203.213 93,203.5C 87.4387,202.959 83.1054,200.292 80,195.5C 76.2372,189.626 76.7372,184.292 81.5,179.5 Z"/></g>
</svg>
