<?xml version="1.0" encoding="UTF-8"?>
<!DOCTYPE svg PUBLIC "-//W3C//DTD SVG 1.1//EN" "http://www.w3.org/Graphics/SVG/1.1/DTD/svg11.dtd">
<svg xmlns="http://www.w3.org/2000/svg" version="1.1" width="500px" height="500px" style="shape-rendering:geometricPrecision; text-rendering:geometricPrecision; image-rendering:optimizeQuality; fill-rule:evenodd; clip-rule:evenodd" xmlns:xlink="http://www.w3.org/1999/xlink">
<g><path style="opacity:0.714" fill="#c5e582" d="M 300.5,131.5 C 300.869,129.007 300.203,128.34 298.5,129.5C 298.603,126.436 299.936,125.436 302.5,126.5C 301.972,128.336 301.306,130.003 300.5,131.5 Z"/></g>
<g><path style="opacity:1" fill="#9dd242" d="M 223.5,136.5 C 221.088,136.669 218.921,136.003 217,134.5C 213.206,135.23 209.373,135.73 205.5,136C 203.867,136.48 202.534,137.313 201.5,138.5C 202.741,133.823 202.741,129.157 201.5,124.5C 208.786,128.478 216.119,132.478 223.5,136.5 Z"/></g>
<g><path style="opacity:1" fill="#b3dc68" d="M 289.5,149.5 C 288.947,145.006 288.78,140.339 289,135.5C 288.623,136.942 287.79,137.942 286.5,138.5C 288.18,132.956 290.347,127.623 293,122.5C 293.87,123.108 294.37,123.941 294.5,125C 291.957,133.002 290.29,141.169 289.5,149.5 Z"/></g>
<g><path style="opacity:1" fill="#a7d616" d="M 223.5,136.5 C 223.937,138.074 224.937,139.241 226.5,140C 225.07,141.886 223.403,143.553 221.5,145C 214.388,147.953 207.388,151.119 200.5,154.5C 200.5,150.5 200.5,146.5 200.5,142.5C 200.232,140.901 200.566,139.568 201.5,138.5C 202.534,137.313 203.867,136.48 205.5,136C 209.373,135.73 213.206,135.23 217,134.5C 218.921,136.003 221.088,136.669 223.5,136.5 Z"/></g>
<g><path style="opacity:1" fill="#e7c329" d="M 157.5,140.5 C 165.709,139.872 169.209,143.539 168,151.5C 163.829,157.729 159.163,158.062 154,152.5C 152.227,147.65 153.394,143.65 157.5,140.5 Z"/></g>
<g><path style="opacity:1" fill="#abd557" d="M 303.5,160.5 C 303.5,159.833 303.5,159.167 303.5,158.5C 303.942,154.846 304.276,151.179 304.5,147.5C 303.041,147.433 301.708,147.766 300.5,148.5C 302.959,141.955 305.126,135.289 307,128.5C 307.414,128.043 307.914,127.709 308.5,127.5C 308.833,128.5 309.167,129.5 309.5,130.5C 307.697,140.681 305.697,150.681 303.5,160.5 Z"/></g>
<g><path style="opacity:0.114" fill="#cee59e" d="M 297.5,146.5 C 297.077,148.781 297.744,150.448 299.5,151.5C 298.791,152.404 297.791,152.737 296.5,152.5C 296.205,150.265 296.539,148.265 297.5,146.5 Z"/></g>
<g><path style="opacity:0.718" fill="#c7e47d" d="M 200.5,142.5 C 200.5,146.5 200.5,150.5 200.5,154.5C 200.963,157.482 201.296,160.482 201.5,163.5C 199.993,159.609 199.326,155.442 199.5,151C 199.502,147.979 199.836,145.146 200.5,142.5 Z"/></g>
<g><path style="opacity:1" fill="#9ad46e" d="M 346.5,162.5 C 347.008,159.824 347.175,157.157 347,154.5C 344.619,153.565 342.119,153.232 339.5,153.5C 342.839,150.688 346.005,151.021 349,154.5C 349.977,157.817 349.144,160.484 346.5,162.5 Z"/></g>
<g><path style="opacity:1" fill="#87ca1f" d="M 223.5,136.5 C 227.188,138.188 229.855,140.855 231.5,144.5C 233.058,147.244 232.391,149.41 229.5,151C 221.553,153.645 213.886,156.812 206.5,160.5C 206.5,161.5 206.5,162.5 206.5,163.5C 204.833,163.5 203.167,163.5 201.5,163.5C 201.296,160.482 200.963,157.482 200.5,154.5C 207.388,151.119 214.388,147.953 221.5,145C 223.403,143.553 225.07,141.886 226.5,140C 224.937,139.241 223.937,138.074 223.5,136.5 Z"/></g>
<g><path style="opacity:1" fill="#9fd44a" d="M 268.5,160.5 C 267.965,162.446 266.632,163.446 264.5,163.5C 264.799,161.396 264.466,159.396 263.5,157.5C 261.833,156.5 260.5,155.167 259.5,153.5C 258.513,156.768 258.18,160.102 258.5,163.5C 255.581,159.151 255.914,154.984 259.5,151C 261.701,150.175 263.534,150.675 265,152.5C 266.127,155.377 266.794,158.377 267,161.5C 267.383,160.944 267.883,160.611 268.5,160.5 Z"/></g>
<g><path style="opacity:1" fill="#9bd02d" d="M 300.5,131.5 C 300.118,136.744 299.118,141.744 297.5,146.5C 296.539,148.265 296.205,150.265 296.5,152.5C 297.791,152.737 298.791,152.404 299.5,151.5C 299.557,150.391 299.89,149.391 300.5,148.5C 301.708,147.766 303.041,147.433 304.5,147.5C 304.276,151.179 303.942,154.846 303.5,158.5C 296.707,153.475 289.374,150.475 281.5,149.5C 282.93,145.646 284.597,141.979 286.5,138.5C 287.79,137.942 288.623,136.942 289,135.5C 288.78,140.339 288.947,145.006 289.5,149.5C 291.136,148.251 292.303,146.584 293,144.5C 294.547,139.356 296.38,134.356 298.5,129.5C 300.203,128.34 300.869,129.007 300.5,131.5 Z"/></g>
<g><path style="opacity:1" fill="#a8d30f" d="M 281.5,149.5 C 289.374,150.475 296.707,153.475 303.5,158.5C 303.5,159.167 303.5,159.833 303.5,160.5C 302.5,160.5 301.5,160.5 300.5,160.5C 300.64,162.124 299.973,163.29 298.5,164C 295.858,165.459 293.191,165.792 290.5,165C 290.957,165.414 291.291,165.914 291.5,166.5C 290.273,167.59 289.44,168.924 289,170.5C 288.226,168.061 286.726,166.227 284.5,165C 285.449,164.383 286.282,164.549 287,165.5C 287.925,164.953 288.758,164.287 289.5,163.5C 287.023,161.666 284.357,160.333 281.5,159.5C 281.5,156.167 281.5,152.833 281.5,149.5 Z"/></g>
<g><path style="opacity:1" fill="#68c627" d="M 339.5,153.5 C 342.119,153.232 344.619,153.565 347,154.5C 347.175,157.157 347.008,159.824 346.5,162.5C 340.174,162.826 337.841,159.826 339.5,153.5 Z"/></g>
<g><path style="opacity:1" fill="#a4db71" d="M 339.5,153.5 C 337.841,159.826 340.174,162.826 346.5,162.5C 339.811,164.319 336.978,161.652 338,154.5C 338.383,153.944 338.883,153.611 339.5,153.5 Z"/></g>
<g><path style="opacity:1" fill="#72c228" d="M 231.5,144.5 C 234.164,146.484 235.831,149.151 236.5,152.5C 236.5,153.833 236.5,155.167 236.5,156.5C 228.685,159.067 221.019,162.233 213.5,166C 210.607,167.149 207.607,167.649 204.5,167.5C 204.5,168.5 204.5,169.5 204.5,170.5C 202.707,168.574 201.707,166.241 201.5,163.5C 203.167,163.5 204.833,163.5 206.5,163.5C 206.5,162.5 206.5,161.5 206.5,160.5C 213.886,156.812 221.553,153.645 229.5,151C 232.391,149.41 233.058,147.244 231.5,144.5 Z"/></g>
<g><path style="opacity:0.392" fill="#bfe499" d="M 275.5,159.5 C 273.097,159.448 270.764,159.781 268.5,160.5C 269.312,159.007 270.645,158.34 272.5,158.5C 273.726,158.52 274.726,158.853 275.5,159.5 Z"/></g>
<g><path style="opacity:1" fill="#d1d14b" d="M 180.5,157.5 C 185.999,158 187.332,160.5 184.5,165C 178.202,165.495 176.868,162.995 180.5,157.5 Z"/></g>
<g><path style="opacity:1" fill="#8ac46f" d="M 236.5,152.5 C 238.975,156.548 240.308,161.048 240.5,166C 240.573,169.61 239.573,172.777 237.5,175.5C 237.5,174.167 237.5,172.833 237.5,171.5C 238.042,169.051 238.375,166.551 238.5,164C 238.7,161.134 238.033,158.634 236.5,156.5C 236.5,155.167 236.5,153.833 236.5,152.5 Z"/></g>
<g><path style="opacity:1" fill="#4db42d" d="M 236.5,156.5 C 238.033,158.634 238.7,161.134 238.5,164C 238.375,166.551 238.042,169.051 237.5,171.5C 231.147,171.72 224.814,172.886 218.5,175C 215.768,175.398 213.935,176.898 213,179.5C 211.978,178.646 211.145,177.646 210.5,176.5C 215.648,174.478 220.648,172.311 225.5,170C 219.605,170.525 214.105,172.358 209,175.5C 208.106,173.233 206.606,171.566 204.5,170.5C 204.5,169.5 204.5,168.5 204.5,167.5C 207.607,167.649 210.607,167.149 213.5,166C 221.019,162.233 228.685,159.067 236.5,156.5 Z"/></g>
<g><path style="opacity:0.882" fill="#92d483" d="M 315.5,166.5 C 312.43,166.368 309.43,166.701 306.5,167.5C 309.214,164.066 312.214,163.733 315.5,166.5 Z"/></g>
<g><path style="opacity:0.067" fill="#d3eba8" d="M 259.5,165.5 C 260.043,165.56 260.376,165.893 260.5,166.5C 257.914,167.48 255.247,167.813 252.5,167.5C 254.833,166.833 257.167,166.167 259.5,165.5 Z"/></g>
<g><path style="opacity:1" fill="#bddc3a" d="M 281.5,149.5 C 281.5,152.833 281.5,156.167 281.5,159.5C 284.357,160.333 287.023,161.666 289.5,163.5C 288.758,164.287 287.925,164.953 287,165.5C 286.282,164.549 285.449,164.383 284.5,165C 286.726,166.227 288.226,168.061 289,170.5C 289.44,168.924 290.273,167.59 291.5,166.5C 291.291,165.914 290.957,165.414 290.5,165C 293.191,165.792 295.858,165.459 298.5,164C 299.973,163.29 300.64,162.124 300.5,160.5C 301.5,160.5 302.5,160.5 303.5,160.5C 302.866,163.643 301.2,166.143 298.5,168C 295.67,168.869 293.003,170.036 290.5,171.5C 288.476,176.222 287.476,180.888 287.5,185.5C 287.5,185.833 287.5,186.167 287.5,186.5C 286.504,186.586 285.671,186.252 285,185.5C 284.333,186.833 283.333,187.833 282,188.5C 280.681,186.75 280.181,184.75 280.5,182.5C 282.007,177.977 283.674,173.477 285.5,169C 283.288,166.446 281.455,163.613 280,160.5C 279.121,156.523 279.621,152.856 281.5,149.5 Z"/></g>
<g><path style="opacity:1" fill="#8fcf3d" d="M 178.5,178.5 C 175.098,178.658 171.764,178.324 168.5,177.5C 165.929,174.18 165.929,170.68 168.5,167C 176.537,163.399 180.704,165.899 181,174.5C 180.8,176.32 179.966,177.653 178.5,178.5 Z"/></g>
<g><path style="opacity:1" fill="#e0c537" d="M 190.5,165.5 C 197.657,165.155 200.824,168.488 200,175.5C 197.774,179.861 194.274,181.361 189.5,180C 184.195,174.737 184.528,169.904 190.5,165.5 Z"/></g>
<g><path style="opacity:0.573" fill="#c3e288" d="M 323.5,164.5 C 324.209,163.596 325.209,163.263 326.5,163.5C 326.813,167.042 326.479,170.375 325.5,173.5C 326.055,169.988 325.388,166.988 323.5,164.5 Z"/></g>
<g><path style="opacity:0.976" fill="#8fcd81" d="M 348.5,174.5 C 348.938,170.092 346.938,168.425 342.5,169.5C 343.659,167.623 345.326,167.123 347.5,168C 349.608,170.016 349.942,172.183 348.5,174.5 Z"/></g>
<g><path style="opacity:1" fill="#5ac04a" d="M 146.5,162.5 C 151.093,161.418 154.093,163.085 155.5,167.5C 153.198,174.191 149.364,175.191 144,170.5C 143.023,167.183 143.856,164.516 146.5,162.5 Z"/></g>
<g><path style="opacity:1" fill="#6dbb52" d="M 275.5,159.5 C 277.441,161.011 277.941,163.011 277,165.5C 274.716,169.949 271.549,173.616 267.5,176.5C 267.34,174.801 267.506,173.134 268,171.5C 268.333,171.833 268.667,172.167 269,172.5C 270.61,167.77 272.776,163.437 275.5,159.5 Z"/></g>
<g><path style="opacity:1" fill="#5bbd4b" d="M 342.5,169.5 C 346.938,168.425 348.938,170.092 348.5,174.5C 347.341,176.377 345.674,176.877 343.5,176C 341.392,173.984 341.058,171.817 342.5,169.5 Z"/></g>
<g><path style="opacity:1" fill="#82cd26" d="M 264.5,163.5 C 265.447,166.817 264.447,169.65 261.5,172C 258.758,173.07 256.258,174.57 254,176.5C 252.67,175.418 251.17,174.751 249.5,174.5C 247.67,171.022 248.67,168.689 252.5,167.5C 255.247,167.813 257.914,167.48 260.5,166.5C 260.376,165.893 260.043,165.56 259.5,165.5C 258.662,165.158 258.328,164.492 258.5,163.5C 258.18,160.102 258.513,156.768 259.5,153.5C 260.5,155.167 261.833,156.5 263.5,157.5C 264.466,159.396 264.799,161.396 264.5,163.5 Z"/></g>
<g><path style="opacity:0.514" fill="#adde96" d="M 306.5,167.5 C 305.735,170.096 305.401,172.763 305.5,175.5C 304.848,174.551 304.514,173.385 304.5,172C 304.307,169.992 304.974,168.492 306.5,167.5 Z"/></g>
<g><path style="opacity:1" fill="#54bf40" d="M 315.5,166.5 C 316.458,166.953 317.292,167.619 318,168.5C 319.853,177.144 316.686,180.478 308.5,178.5C 307.833,177.167 306.833,176.167 305.5,175.5C 305.401,172.763 305.735,170.096 306.5,167.5C 309.43,166.701 312.43,166.368 315.5,166.5 Z"/></g>
<g><path style="opacity:1" fill="#58b82f" d="M 275.5,159.5 C 272.776,163.437 270.61,167.77 269,172.5C 268.667,172.167 268.333,171.833 268,171.5C 267.506,173.134 267.34,174.801 267.5,176.5C 266.533,177.806 265.199,178.473 263.5,178.5C 260.15,178.665 256.817,178.498 253.5,178C 251.676,177.34 250.343,176.173 249.5,174.5C 251.17,174.751 252.67,175.418 254,176.5C 256.258,174.57 258.758,173.07 261.5,172C 264.447,169.65 265.447,166.817 264.5,163.5C 266.632,163.446 267.965,162.446 268.5,160.5C 270.764,159.781 273.097,159.448 275.5,159.5 Z"/></g>
<g><path style="opacity:1" fill="#a3d74c" d="M 323.5,164.5 C 325.388,166.988 326.055,169.988 325.5,173.5C 325.262,175.645 324.262,177.312 322.5,178.5C 319.772,173.559 320.106,168.892 323.5,164.5 Z"/></g>
<g><path style="opacity:0.039" fill="#bce2a5" d="M 305.5,175.5 C 306.833,176.167 307.833,177.167 308.5,178.5C 306.5,178.5 305.5,177.5 305.5,175.5 Z"/></g>
<g><path style="opacity:1" fill="#b2da4c" d="M 166.5,179.5 C 166.179,181.048 165.179,181.715 163.5,181.5C 159.795,181.129 157.795,179.129 157.5,175.5C 161.165,175.502 164.165,176.835 166.5,179.5 Z"/></g>
<g><path style="opacity:1" fill="#a9d86c" d="M 168.5,177.5 C 171.764,178.324 175.098,178.658 178.5,178.5C 174.886,181.313 171.552,180.979 168.5,177.5 Z"/></g>
<g><path style="opacity:1" fill="#94d554" d="M 331.5,175.5 C 334.167,175.5 336.833,175.5 339.5,175.5C 337.834,179.872 334.501,181.872 329.5,181.5C 328.167,181.333 326.833,181.167 325.5,181C 327.396,178.932 329.396,177.099 331.5,175.5 Z"/></g>
<g><path style="opacity:0.392" fill="#cce798" d="M 166.5,179.5 C 167.478,179.811 168.145,180.478 168.5,181.5C 166.701,182.788 165.035,182.788 163.5,181.5C 165.179,181.715 166.179,181.048 166.5,179.5 Z"/></g>
<g><path style="opacity:0.859" fill="#b8de8b" d="M 317.5,181.5 C 312.13,181.392 306.797,181.725 301.5,182.5C 300.167,182.5 298.833,182.5 297.5,182.5C 304.109,180.529 310.776,180.196 317.5,181.5 Z"/></g>
<g><path style="opacity:1" fill="#99d27c" d="M 349.5,187.5 C 349.985,182.841 348.152,181.508 344,183.5C 343.517,184.448 343.351,185.448 343.5,186.5C 341.806,183.361 342.806,181.361 346.5,180.5C 350.332,181.713 351.332,184.046 349.5,187.5 Z"/></g>
<g><path style="opacity:1" fill="#62c43b" d="M 349.5,187.5 C 348.726,188.147 347.726,188.48 346.5,188.5C 344.97,188.36 343.97,187.693 343.5,186.5C 343.351,185.448 343.517,184.448 344,183.5C 348.152,181.508 349.985,182.841 349.5,187.5 Z"/></g>
<g><path style="opacity:1" fill="#7bc326" d="M 297.5,182.5 C 298.833,182.5 300.167,182.5 301.5,182.5C 302.609,183.29 303.942,183.79 305.5,184C 305.833,185 306.167,186 306.5,187C 304.431,187.324 304.098,188.158 305.5,189.5C 298.028,199.045 290.194,209.045 282,219.5C 280.224,218.464 278.391,218.464 276.5,219.5C 275.599,218.71 274.932,217.71 274.5,216.5C 278.894,212.726 282.061,208.059 284,202.5C 285.771,201.696 287.271,200.529 288.5,199C 288.167,198.667 287.833,198.333 287.5,198C 292.08,196.451 293.58,193.284 292,188.5C 291.667,188.833 291.333,189.167 291,189.5C 290.241,187.937 289.074,186.937 287.5,186.5C 287.5,186.167 287.5,185.833 287.5,185.5C 290.505,183.723 293.838,182.723 297.5,182.5 Z"/></g>
<g><path style="opacity:1" fill="#7bc229" d="M 317.5,181.5 C 320.279,181.279 322.946,181.612 325.5,182.5C 327.441,183.674 328.941,185.341 330,187.5C 331.418,184.999 332.418,185.332 333,188.5C 335.288,188.263 337.788,188.263 340.5,188.5C 352.364,194.696 360.697,204.03 365.5,216.5C 365.167,216.5 364.833,216.5 364.5,216.5C 361.821,214.052 359.487,211.385 357.5,208.5C 356.442,207.4 355.608,206.066 355,204.5C 354.549,206.929 353.715,207.096 352.5,205C 353.167,204 353.833,203 354.5,202C 352.479,201.599 351.145,200.432 350.5,198.5C 348.314,197.779 346.147,197.113 344,196.5C 343.333,197.167 342.667,197.833 342,198.5C 341.282,197.549 340.449,197.383 339.5,198C 338.845,199.487 337.845,200.653 336.5,201.5C 335.718,199.671 336.384,198.171 338.5,197C 335.833,196.333 335.833,195.667 338.5,195C 335.777,192.149 332.777,191.983 329.5,194.5C 328.876,196.958 327.376,198.624 325,199.5C 324.269,201.899 323.102,204.065 321.5,206C 321.616,207.268 321.949,208.602 322.5,210C 319.833,210.667 319.833,211.333 322.5,212C 321.906,212.464 321.239,212.631 320.5,212.5C 317.482,212.335 314.482,212.502 311.5,213C 312.252,213.671 312.586,214.504 312.5,215.5C 313.064,218.541 313.397,221.375 313.5,224C 308.971,224.754 307.304,226.754 308.5,230C 307.563,233.156 306.063,235.989 304,238.5C 303.586,238.043 303.086,237.709 302.5,237.5C 301.9,235.424 301.567,233.424 301.5,231.5C 299.469,233.249 299.135,235.249 300.5,237.5C 299.284,238.096 297.951,238.263 296.5,238C 296.026,239.729 295.026,240.895 293.5,241.5C 295.388,237.394 297.554,233.394 300,229.5C 300.667,226.833 300.667,224.167 300,221.5C 299.617,220.944 299.117,220.611 298.5,220.5C 296.841,217.861 295.008,217.861 293,220.5C 290.933,217.986 289.433,218.152 288.5,221C 286.559,221.743 284.726,221.576 283,220.5C 282.722,221.416 282.222,222.082 281.5,222.5C 277.43,221.508 275.43,223.008 275.5,227C 275.384,229.544 276.217,231.711 278,233.5C 280.191,234.833 282.024,236.5 283.5,238.5C 283.5,239.167 283.5,239.833 283.5,240.5C 282.918,241.931 282.085,243.264 281,244.5C 279.513,243.747 279.346,242.914 280.5,242C 275.582,240.128 273.916,236.795 275.5,232C 274.5,231.667 273.5,231.333 272.5,231C 273.288,227.924 273.788,224.758 274,221.5C 274.995,220.934 275.828,220.267 276.5,219.5C 278.391,218.464 280.224,218.464 282,219.5C 290.194,209.045 298.028,199.045 305.5,189.5C 304.098,188.158 304.431,187.324 306.5,187C 306.167,186 305.833,185 305.5,184C 303.942,183.79 302.609,183.29 301.5,182.5C 306.797,181.725 312.13,181.392 317.5,181.5 Z"/></g>
<g><path style="opacity:0.843" fill="#7bb98c" d="M 194.5,184.5 C 188.491,184.701 182.491,185.034 176.5,185.5C 180.072,184.097 183.905,183.431 188,183.5C 190.361,183.504 192.527,183.837 194.5,184.5 Z"/></g>
<g><path style="opacity:1" fill="#1a8b3f" d="M 194.5,184.5 C 208.781,186.144 221.114,191.81 231.5,201.5C 232.419,204.089 234.086,206.089 236.5,207.5C 236.539,208.756 236.039,209.756 235,210.5C 233.644,209.62 232.144,209.286 230.5,209.5C 228.901,209.232 227.568,209.566 226.5,210.5C 225.883,210.389 225.383,210.056 225,209.5C 222.655,220.96 226.155,230.293 235.5,237.5C 238.832,241.664 242.665,245.331 247,248.5C 247.497,245.854 247.664,243.187 247.5,240.5C 248.161,242.134 248.494,243.967 248.5,246C 248.453,248.295 247.787,250.129 246.5,251.5C 240.139,248.491 233.472,246.491 226.5,245.5C 226.289,240.862 224.622,236.862 221.5,233.5C 220.306,232.728 219.306,231.728 218.5,230.5C 218.414,229.504 218.748,228.671 219.5,228C 216.971,225.971 214.304,224.138 211.5,222.5C 209.855,219.155 207.855,215.988 205.5,213C 202.312,211.684 198.978,211.184 195.5,211.5C 192.531,207.221 188.531,203.887 183.5,201.5C 182.614,200.675 182.281,199.675 182.5,198.5C 178.047,196.11 173.381,193.944 168.5,192C 169.833,191.333 169.833,190.667 168.5,190C 166.203,189.982 163.869,190.149 161.5,190.5C 165.956,187.459 170.956,185.792 176.5,185.5C 182.491,185.034 188.491,184.701 194.5,184.5 Z"/></g>
<g><path style="opacity:1" fill="#9ad062" d="M 325.5,182.5 C 330.895,183.704 335.895,185.704 340.5,188.5C 337.788,188.263 335.288,188.263 333,188.5C 332.418,185.332 331.418,184.999 330,187.5C 328.941,185.341 327.441,183.674 325.5,182.5 Z"/></g>
<g><path style="opacity:0.831" fill="#99cd7e" d="M 267.5,176.5 C 266.24,179.98 266.24,183.48 267.5,187C 267.546,188.728 267.046,190.228 266,191.5C 264.839,187.268 264.005,182.934 263.5,178.5C 265.199,178.473 266.533,177.806 267.5,176.5 Z"/></g>
<g><path style="opacity:1" fill="#17933e" d="M 218.5,230.5 C 213.599,228.098 208.599,227.931 203.5,230C 202.619,230.708 201.953,231.542 201.5,232.5C 199.012,233.74 197.179,235.74 196,238.5C 193.805,249.114 197.638,256.447 207.5,260.5C 207.833,260.5 208.167,260.5 208.5,260.5C 208.413,265.537 208.746,270.537 209.5,275.5C 209.545,278.077 208.545,280.077 206.5,281.5C 203.833,278.5 201.167,275.5 198.5,272.5C 193.973,266.985 190.307,260.985 187.5,254.5C 186.112,248.479 186.278,242.479 188,236.5C 191.697,231.638 195.864,227.304 200.5,223.5C 202.424,223.289 202.757,222.623 201.5,221.5C 200.71,220.206 199.71,219.039 198.5,218C 194.642,217.19 190.976,217.357 187.5,218.5C 184.497,219.666 181.83,221.333 179.5,223.5C 178.647,221.403 178.647,219.403 179.5,217.5C 179.24,215.813 178.573,214.313 177.5,213C 177.833,212.667 178.167,212.333 178.5,212C 177.24,210.887 176.073,210.72 175,211.5C 173.667,209.833 172.333,208.167 171,206.5C 168.772,207.299 167.439,206.299 167,203.5C 166.667,204.167 166.333,204.833 166,205.5C 163.413,202.833 160.746,200.167 158,197.5C 157.692,198.308 157.192,198.975 156.5,199.5C 154.308,197.545 151.975,197.212 149.5,198.5C 152.678,194.664 156.678,191.998 161.5,190.5C 163.869,190.149 166.203,189.982 168.5,190C 169.833,190.667 169.833,191.333 168.5,192C 173.381,193.944 178.047,196.11 182.5,198.5C 182.281,199.675 182.614,200.675 183.5,201.5C 188.531,203.887 192.531,207.221 195.5,211.5C 198.978,211.184 202.312,211.684 205.5,213C 207.855,215.988 209.855,219.155 211.5,222.5C 214.304,224.138 216.971,225.971 219.5,228C 218.748,228.671 218.414,229.504 218.5,230.5 Z"/></g>
<g><path style="opacity:1" fill="#73c746" d="M 145.5,183.5 C 153.486,182.998 155.486,186.165 151.5,193C 146.921,194.577 143.921,193.077 142.5,188.5C 143.26,186.64 144.26,184.973 145.5,183.5 Z"/></g>
<g><path style="opacity:1" fill="#4eb247" d="M 237.5,171.5 C 237.5,172.833 237.5,174.167 237.5,175.5C 236.797,177.716 235.464,179.549 233.5,181C 238.471,188.922 241.638,197.422 243,206.5C 240.765,207.98 238.932,207.647 237.5,205.5C 237.706,202.505 237.04,199.838 235.5,197.5C 233.717,192.842 231.717,188.176 229.5,183.5C 217.756,185.761 209.422,181.427 204.5,170.5C 206.606,171.566 208.106,173.233 209,175.5C 214.105,172.358 219.605,170.525 225.5,170C 220.648,172.311 215.648,174.478 210.5,176.5C 211.145,177.646 211.978,178.646 213,179.5C 213.935,176.898 215.768,175.398 218.5,175C 224.814,172.886 231.147,171.72 237.5,171.5 Z"/></g>
<g><path style="opacity:1" fill="#189a40" d="M 179.5,223.5 C 179.5,224.167 179.167,224.5 178.5,224.5C 177.094,224.973 176.427,225.973 176.5,227.5C 174.461,228.911 173.461,230.911 173.5,233.5C 172.71,232.391 172.21,231.058 172,229.5C 165.106,223.73 157.773,218.73 150,214.5C 149.667,214.833 149.333,215.167 149,215.5C 148.784,213.616 148.117,211.949 147,210.5C 146.259,211.641 145.425,211.641 144.5,210.5C 143.185,212.316 141.685,213.983 140,215.5C 139.667,214.5 139.333,213.5 139,212.5C 138.26,214.319 137.093,215.652 135.5,216.5C 137.338,211.335 140.338,207.001 144.5,203.5C 146.5,202.167 148.167,200.5 149.5,198.5C 151.975,197.212 154.308,197.545 156.5,199.5C 157.192,198.975 157.692,198.308 158,197.5C 160.746,200.167 163.413,202.833 166,205.5C 166.333,204.833 166.667,204.167 167,203.5C 167.439,206.299 168.772,207.299 171,206.5C 172.333,208.167 173.667,209.833 175,211.5C 176.073,210.72 177.24,210.887 178.5,212C 178.167,212.333 177.833,212.667 177.5,213C 178.573,214.313 179.24,215.813 179.5,217.5C 178.647,219.403 178.647,221.403 179.5,223.5 Z"/></g>
<g><path style="opacity:0.514" fill="#9dd39f" d="M 149.5,198.5 C 148.167,200.5 146.5,202.167 144.5,203.5C 145.167,200.833 146.833,199.167 149.5,198.5 Z"/></g>
<g><path style="opacity:0.024" fill="#c0e1a9" d="M 235.5,197.5 C 237.04,199.838 237.706,202.505 237.5,205.5C 237.167,205.5 236.833,205.5 236.5,205.5C 236.167,202.833 235.833,200.167 235.5,197.5 Z"/></g>
<g><path style="opacity:1" fill="#83c825" d="M 280.5,182.5 C 280.181,184.75 280.681,186.75 282,188.5C 283.333,187.833 284.333,186.833 285,185.5C 285.671,186.252 286.504,186.586 287.5,186.5C 289.074,186.937 290.241,187.937 291,189.5C 291.333,189.167 291.667,188.833 292,188.5C 293.58,193.284 292.08,196.451 287.5,198C 287.833,198.333 288.167,198.667 288.5,199C 287.271,200.529 285.771,201.696 284,202.5C 282.061,208.059 278.894,212.726 274.5,216.5C 270.45,219.548 267.117,223.215 264.5,227.5C 262.38,229.744 259.88,231.41 257,232.5C 256.86,235.043 256.194,237.377 255,239.5C 253.602,237.186 253.435,234.853 254.5,232.5C 253.349,231.269 252.183,231.269 251,232.5C 250.395,229.694 249.062,227.36 247,225.5C 246.51,224.207 246.343,222.873 246.5,221.5C 247.315,222.429 248.148,223.429 249,224.5C 255.03,209.467 265.03,197.8 279,189.5C 279.353,188.328 279.187,187.162 278.5,186C 278.808,184.541 279.475,183.374 280.5,182.5 Z"/></g>
<g><path style="opacity:0.639" fill="#9bcc98" d="M 231.5,201.5 C 233.167,202.833 234.833,204.167 236.5,205.5C 236.5,206.167 236.5,206.833 236.5,207.5C 234.086,206.089 232.419,204.089 231.5,201.5 Z"/></g>
<g><path style="opacity:1" fill="#88c81c" d="M 357.5,208.5 C 355.051,209.791 352.384,210.791 349.5,211.5C 344.667,217.167 339.833,222.833 335,228.5C 334.092,226.561 332.592,225.561 330.5,225.5C 328.354,220.187 325.021,215.854 320.5,212.5C 321.239,212.631 321.906,212.464 322.5,212C 319.833,211.333 319.833,210.667 322.5,210C 321.949,208.602 321.616,207.268 321.5,206C 323.102,204.065 324.269,201.899 325,199.5C 327.376,198.624 328.876,196.958 329.5,194.5C 332.777,191.983 335.777,192.149 338.5,195C 335.833,195.667 335.833,196.333 338.5,197C 336.384,198.171 335.718,199.671 336.5,201.5C 337.845,200.653 338.845,199.487 339.5,198C 340.449,197.383 341.282,197.549 342,198.5C 342.667,197.833 343.333,197.167 344,196.5C 346.147,197.113 348.314,197.779 350.5,198.5C 351.145,200.432 352.479,201.599 354.5,202C 353.833,203 353.167,204 352.5,205C 353.715,207.096 354.549,206.929 355,204.5C 355.608,206.066 356.442,207.4 357.5,208.5 Z"/></g>
<g><path style="opacity:1" fill="#16a03e" d="M 173.5,233.5 C 172.833,234.833 172.167,236.167 171.5,237.5C 170.883,237.389 170.383,237.056 170,236.5C 168.333,239.5 166,241.833 163,243.5C 160.913,242.166 159.413,240.333 158.5,238C 156.413,237.208 154.579,236.041 153,234.5C 152.667,235.167 152.333,235.833 152,236.5C 150.565,234.789 148.731,233.622 146.5,233C 146.833,232.667 147.167,232.333 147.5,232C 146.376,231.751 145.376,231.251 144.5,230.5C 143.149,227.804 141.316,225.47 139,223.5C 137.632,221.973 137.132,220.473 137.5,219C 136.668,218.312 136.002,218.479 135.5,219.5C 134.167,220.5 134.167,221.5 135.5,222.5C 135.043,223.298 134.376,223.631 133.5,223.5C 133.5,222.833 133.5,222.167 133.5,221.5C 133.796,219.597 134.463,217.93 135.5,216.5C 137.093,215.652 138.26,214.319 139,212.5C 139.333,213.5 139.667,214.5 140,215.5C 141.685,213.983 143.185,212.316 144.5,210.5C 145.425,211.641 146.259,211.641 147,210.5C 148.117,211.949 148.784,213.616 149,215.5C 149.333,215.167 149.667,214.833 150,214.5C 157.773,218.73 165.106,223.73 172,229.5C 172.21,231.058 172.71,232.391 173.5,233.5 Z"/></g>
<g><path style="opacity:1" fill="#6dba68" d="M 236.5,207.5 C 238.89,208.891 240.557,210.891 241.5,213.5C 241.158,214.338 240.492,214.672 239.5,214.5C 236.594,212.55 233.594,210.883 230.5,209.5C 232.144,209.286 233.644,209.62 235,210.5C 236.039,209.756 236.539,208.756 236.5,207.5 Z"/></g>
<g><path style="opacity:1" fill="#96cc15" d="M 357.5,208.5 C 359.487,211.385 361.821,214.052 364.5,216.5C 365.112,220.163 365.279,223.83 365,227.5C 363.883,227.264 362.716,227.264 361.5,227.5C 355.421,232.08 349.921,237.414 345,243.5C 344.5,241.667 343.333,240.5 341.5,240C 341.5,238.667 341.5,237.333 341.5,236C 341.167,235.833 340.833,235.667 340.5,235.5C 339.702,237.078 339.202,238.744 339,240.5C 338.333,237.833 337.667,237.833 337,240.5C 335.908,234.183 334.908,234.517 334,241.5C 333.809,239.292 333.309,237.292 332.5,235.5C 332.424,232.027 331.758,228.694 330.5,225.5C 332.592,225.561 334.092,226.561 335,228.5C 339.833,222.833 344.667,217.167 349.5,211.5C 352.384,210.791 355.051,209.791 357.5,208.5 Z"/></g>
<g><path style="opacity:1" fill="#1da63c" d="M 171.5,237.5 C 169.277,248.955 170.61,259.955 175.5,270.5C 174.957,270.56 174.624,270.893 174.5,271.5C 175.637,273.607 176.637,275.773 177.5,278C 180.353,282.999 183.353,287.833 186.5,292.5C 183.586,291.094 181.086,289.094 179,286.5C 177.067,282.302 174.401,278.635 171,275.5C 170.667,274.167 170.333,272.833 170,271.5C 169.764,273.119 168.931,274.119 167.5,274.5C 169.183,270.905 168.517,267.905 165.5,265.5C 163.052,264.527 160.385,264.194 157.5,264.5C 156.25,261.994 155.584,259.327 155.5,256.5C 152.048,256.552 149.881,254.885 149,251.5C 147.927,252.28 146.76,252.113 145.5,251C 145.833,250.667 146.167,250.333 146.5,250C 145.167,249.667 143.833,249.333 142.5,249C 142.833,248.667 143.167,248.333 143.5,248C 142.584,247.626 141.75,247.126 141,246.5C 139.701,246.966 138.201,246.966 136.5,246.5C 136.649,245.448 136.483,244.448 136,243.5C 135.667,243.833 135.333,244.167 135,244.5C 133.156,241.319 131.989,237.986 131.5,234.5C 131.414,230.681 132.081,227.015 133.5,223.5C 134.376,223.631 135.043,223.298 135.5,222.5C 134.167,221.5 134.167,220.5 135.5,219.5C 136.002,218.479 136.668,218.312 137.5,219C 137.132,220.473 137.632,221.973 139,223.5C 141.316,225.47 143.149,227.804 144.5,230.5C 145.376,231.251 146.376,231.751 147.5,232C 147.167,232.333 146.833,232.667 146.5,233C 148.731,233.622 150.565,234.789 152,236.5C 152.333,235.833 152.667,235.167 153,234.5C 154.579,236.041 156.413,237.208 158.5,238C 159.413,240.333 160.913,242.166 163,243.5C 166,241.833 168.333,239.5 170,236.5C 170.383,237.056 170.883,237.389 171.5,237.5 Z"/></g>
<g><path style="opacity:0.91" fill="#7dbf81" d="M 187.5,218.5 C 190.976,217.357 194.642,217.19 198.5,218C 199.71,219.039 200.71,220.206 201.5,221.5C 197.217,219.042 192.551,218.042 187.5,218.5 Z"/></g>
<g><path style="opacity:1" fill="#a2d05c" d="M 241.5,213.5 C 243.664,215.822 245.331,218.489 246.5,221.5C 245.518,220.859 244.518,220.193 243.5,219.5C 242.713,223.838 242.046,228.172 241.5,232.5C 240.883,232.389 240.383,232.056 240,231.5C 239.304,228.522 238.804,225.522 238.5,222.5C 239.6,224.277 240.434,226.277 241,228.5C 240.966,223.814 240.466,219.148 239.5,214.5C 240.492,214.672 241.158,214.338 241.5,213.5 Z"/></g>
<g><path style="opacity:1" fill="#8cca4e" d="M 298.5,220.5 C 296.345,220.372 294.345,220.872 292.5,222C 289.148,227.754 285.482,227.921 281.5,222.5C 282.222,222.082 282.722,221.416 283,220.5C 284.726,221.576 286.559,221.743 288.5,221C 289.433,218.152 290.933,217.986 293,220.5C 295.008,217.861 296.841,217.861 298.5,220.5 Z"/></g>
<g><path style="opacity:0.969" fill="#c5d778" d="M 365.5,216.5 C 367.806,220.085 369.139,224.085 369.5,228.5C 367.589,224.767 366.256,220.767 365.5,216.5 Z"/></g>
<g><path style="opacity:0.486" fill="#bee0a3" d="M 201.5,221.5 C 202.757,222.623 202.424,223.289 200.5,223.5C 198.833,223.5 197.167,223.5 195.5,223.5C 197.5,222.833 199.5,222.167 201.5,221.5 Z"/></g>
<g><path style="opacity:0.004" fill="#c4e7ba" d="M 178.5,224.5 C 178.573,226.027 177.906,227.027 176.5,227.5C 176.427,225.973 177.094,224.973 178.5,224.5 Z"/></g>
<g><path style="opacity:0.58" fill="#bae184" d="M 195.5,223.5 C 195.389,224.117 195.056,224.617 194.5,225C 192.167,225.333 189.833,225.667 187.5,226C 183.914,227.768 180.247,229.268 176.5,230.5C 176.5,230.167 176.5,229.833 176.5,229.5C 182.273,225.91 188.606,223.91 195.5,223.5 Z"/></g>
<g><path style="opacity:1" fill="#f6c101" d="M 320.5,212.5 C 325.021,215.854 328.354,220.187 330.5,225.5C 331.758,228.694 332.424,232.027 332.5,235.5C 332.5,236.5 332.5,237.5 332.5,238.5C 332.69,244.788 330.19,249.788 325,253.5C 317.062,265.061 308.895,276.394 300.5,287.5C 299.624,288.251 298.624,288.751 297.5,289C 297.833,289.333 298.167,289.667 298.5,290C 297.54,291.419 296.707,292.919 296,294.5C 294.667,295.833 293.333,295.833 292,294.5C 289.064,301.26 284.564,306.594 278.5,310.5C 276.528,314.105 273.861,317.105 270.5,319.5C 268.037,329.021 265.037,338.354 261.5,347.5C 261.624,348.107 261.957,348.44 262.5,348.5C 259.776,354.338 257.443,360.338 255.5,366.5C 254.833,368.833 254.167,371.167 253.5,373.5C 252.869,375.975 251.869,378.309 250.5,380.5C 251.413,362.433 255.413,345.1 262.5,328.5C 264.105,325.622 265.439,322.622 266.5,319.5C 267.5,318.167 268.5,316.833 269.5,315.5C 270.239,315.631 270.906,315.464 271.5,315C 275.283,310.181 279.45,305.681 284,301.5C 285.465,297.425 287.298,293.591 289.5,290C 290.077,287.863 290.41,285.696 290.5,283.5C 290.5,283.167 290.5,282.833 290.5,282.5C 300.037,272.102 307.871,260.435 314,247.5C 317.803,236.46 317.303,225.793 312.5,215.5C 312.586,214.504 312.252,213.671 311.5,213C 314.482,212.502 317.482,212.335 320.5,212.5 Z"/></g>
<g><path style="opacity:0.31" fill="#aada9a" d="M 176.5,227.5 C 176.5,228.167 176.5,228.833 176.5,229.5C 175.167,229.833 175.167,230.167 176.5,230.5C 175.833,231.833 174.833,232.833 173.5,233.5C 173.461,230.911 174.461,228.911 176.5,227.5 Z"/></g>
<g><path style="opacity:1" fill="#e9c63f" d="M 218.5,230.5 C 219.306,231.728 220.306,232.728 221.5,233.5C 220.691,235.013 220.524,236.68 221,238.5C 220.283,237.956 219.783,237.289 219.5,236.5C 217.928,233.366 215.262,231.7 211.5,231.5C 207.352,231.653 204.019,233.32 201.5,236.5C 201.5,235.167 201.5,233.833 201.5,232.5C 201.953,231.542 202.619,230.708 203.5,230C 208.599,227.931 213.599,228.098 218.5,230.5 Z"/></g>
<g><path style="opacity:1" fill="#93cd1e" d="M 226.5,210.5 C 232.167,212.833 236.167,216.833 238.5,222.5C 238.804,225.522 239.304,228.522 240,231.5C 240.383,232.056 240.883,232.389 241.5,232.5C 240.791,233.404 239.791,233.737 238.5,233.5C 238.649,234.552 238.483,235.552 238,236.5C 237.667,236.167 237.333,235.833 237,235.5C 236.722,236.416 236.222,237.082 235.5,237.5C 226.155,230.293 222.655,220.96 225,209.5C 225.383,210.056 225.883,210.389 226.5,210.5 Z"/></g>
<g><path style="opacity:1" fill="#e8b017" d="M 221.5,233.5 C 224.622,236.862 226.289,240.862 226.5,245.5C 223.68,245.248 221.014,245.748 218.5,247C 213.641,250.342 210.641,254.842 209.5,260.5C 209.167,260.5 208.833,260.5 208.5,260.5C 208.167,260.5 207.833,260.5 207.5,260.5C 207.389,259.883 207.056,259.383 206.5,259C 208.781,253.739 211.448,248.739 214.5,244C 214.097,242.527 213.43,241.194 212.5,240C 213.167,239.667 213.833,239.333 214.5,239C 210.424,238.892 206.424,239.392 202.5,240.5C 203.595,237.265 205.928,235.432 209.5,235C 213.072,234.153 216.406,234.653 219.5,236.5C 219.783,237.289 220.283,237.956 221,238.5C 220.524,236.68 220.691,235.013 221.5,233.5 Z"/></g>
<g><path style="opacity:1" fill="#85c31b" d="M 312.5,215.5 C 317.303,225.793 317.803,236.46 314,247.5C 307.871,260.435 300.037,272.102 290.5,282.5C 290.795,280.265 290.461,278.265 289.5,276.5C 289.898,273.517 290.232,270.517 290.5,267.5C 290.618,264.514 289.952,261.848 288.5,259.5C 288.5,258.5 288.5,257.5 288.5,256.5C 289.496,256.414 290.329,256.748 291,257.5C 291.483,256.552 291.649,255.552 291.5,254.5C 292.158,255.398 292.824,256.398 293.5,257.5C 294.586,254.287 294.253,251.287 292.5,248.5C 292.5,248.167 292.5,247.833 292.5,247.5C 292.5,246.167 292.5,244.833 292.5,243.5C 292.328,242.508 292.662,241.842 293.5,241.5C 295.026,240.895 296.026,239.729 296.5,238C 297.951,238.263 299.284,238.096 300.5,237.5C 299.135,235.249 299.469,233.249 301.5,231.5C 301.567,233.424 301.9,235.424 302.5,237.5C 303.086,237.709 303.586,238.043 304,238.5C 306.063,235.989 307.563,233.156 308.5,230C 307.304,226.754 308.971,224.754 313.5,224C 313.397,221.375 313.064,218.541 312.5,215.5 Z"/></g>
<g><path style="opacity:1" fill="#76c476" d="M 133.5,221.5 C 133.5,222.167 133.5,222.833 133.5,223.5C 132.081,227.015 131.414,230.681 131.5,234.5C 131.5,241.833 131.5,249.167 131.5,256.5C 130.698,255.048 130.198,253.382 130,251.5C 129.333,245.167 129.333,238.833 130,232.5C 130.498,228.509 131.665,224.842 133.5,221.5 Z"/></g>
<g><path style="opacity:1" fill="#9fcf13" d="M 361.5,227.5 C 363.199,229.999 362.533,232.166 359.5,234C 359.833,234.333 360.167,234.667 360.5,235C 359.67,236.747 358.67,238.413 357.5,240C 357.645,240.772 357.978,241.439 358.5,242C 355.702,243.63 353.035,245.463 350.5,247.5C 349.961,250.166 348.628,252.333 346.5,254C 346.833,254.333 347.167,254.667 347.5,255C 344.412,257.071 341.079,258.738 337.5,260C 338.34,261.666 337.84,261.833 336,260.5C 334.147,262.903 332.314,265.236 330.5,267.5C 331.498,263.672 331.498,260.006 330.5,256.5C 332.065,250.62 332.732,244.62 332.5,238.5C 332.5,237.5 332.5,236.5 332.5,235.5C 333.309,237.292 333.809,239.292 334,241.5C 334.908,234.517 335.908,234.183 337,240.5C 337.667,237.833 338.333,237.833 339,240.5C 339.202,238.744 339.702,237.078 340.5,235.5C 340.833,235.667 341.167,235.833 341.5,236C 341.5,237.333 341.5,238.667 341.5,240C 343.333,240.5 344.5,241.667 345,243.5C 349.921,237.414 355.421,232.08 361.5,227.5 Z"/></g>
<g><path style="opacity:1" fill="#a4cf13" d="M 364.5,216.5 C 364.833,216.5 365.167,216.5 365.5,216.5C 366.256,220.767 367.589,224.767 369.5,228.5C 369.5,228.833 369.5,229.167 369.5,229.5C 369.793,236.255 369.46,242.922 368.5,249.5C 366.518,250.807 364.518,252.141 362.5,253.5C 361.808,252.975 361.308,252.308 361,251.5C 359.908,253.131 359.075,254.798 358.5,256.5C 353.43,256.771 350.597,259.105 350,263.5C 349.667,263.167 349.333,262.833 349,262.5C 348.274,265.288 346.44,266.788 343.5,267C 343.833,267.333 344.167,267.667 344.5,268C 342.5,269.333 340.833,271 339.5,273C 334.486,273.694 332.153,276.527 332.5,281.5C 332.672,280.508 332.338,279.842 331.5,279.5C 330.648,280.116 329.815,281.449 329,283.5C 328.29,282.027 327.124,281.36 325.5,281.5C 325.657,280.127 325.49,278.793 325,277.5C 324.667,280.167 324.333,282.833 324,285.5C 323.148,284.429 322.315,283.429 321.5,282.5C 323.397,278.083 325.563,273.749 328,269.5C 328.708,268.619 329.542,267.953 330.5,267.5C 332.314,265.236 334.147,262.903 336,260.5C 337.84,261.833 338.34,261.666 337.5,260C 341.079,258.738 344.412,257.071 347.5,255C 347.167,254.667 346.833,254.333 346.5,254C 348.628,252.333 349.961,250.166 350.5,247.5C 353.035,245.463 355.702,243.63 358.5,242C 357.978,241.439 357.645,240.772 357.5,240C 358.67,238.413 359.67,236.747 360.5,235C 360.167,234.667 359.833,234.333 359.5,234C 362.533,232.166 363.199,229.999 361.5,227.5C 362.716,227.264 363.883,227.264 365,227.5C 365.279,223.83 365.112,220.163 364.5,216.5 Z"/></g>
<g><path style="opacity:0.612" fill="#b6db8a" d="M 283.5,238.5 C 286.522,239.522 288.522,241.522 289.5,244.5C 287.754,242.748 285.754,241.415 283.5,240.5C 283.5,239.833 283.5,239.167 283.5,238.5 Z"/></g>
<g><path style="opacity:1" fill="#eeba08" d="M 201.5,232.5 C 201.5,233.833 201.5,235.167 201.5,236.5C 201.579,237.93 201.246,239.264 200.5,240.5C 200.97,241.463 201.637,241.463 202.5,240.5C 206.424,239.392 210.424,238.892 214.5,239C 213.833,239.333 213.167,239.667 212.5,240C 213.43,241.194 214.097,242.527 214.5,244C 211.448,248.739 208.781,253.739 206.5,259C 207.056,259.383 207.389,259.883 207.5,260.5C 197.638,256.447 193.805,249.114 196,238.5C 197.179,235.74 199.012,233.74 201.5,232.5 Z"/></g>
<g><path style="opacity:1" fill="#78c020" d="M 274.5,216.5 C 274.932,217.71 275.599,218.71 276.5,219.5C 275.828,220.267 274.995,220.934 274,221.5C 273.788,224.758 273.288,227.924 272.5,231C 273.5,231.333 274.5,231.667 275.5,232C 273.916,236.795 275.582,240.128 280.5,242C 279.346,242.914 279.513,243.747 281,244.5C 282.085,243.264 282.918,241.931 283.5,240.5C 285.754,241.415 287.754,242.748 289.5,244.5C 290.338,244.842 290.672,245.508 290.5,246.5C 290.575,249.206 290.908,251.873 291.5,254.5C 291.649,255.552 291.483,256.552 291,257.5C 290.329,256.748 289.496,256.414 288.5,256.5C 283.62,247.142 275.954,243.642 265.5,246C 261.526,246.994 257.86,248.494 254.5,250.5C 254.167,250.5 253.833,250.5 253.5,250.5C 251.925,248.886 251.259,246.886 251.5,244.5C 251.5,241.167 251.5,237.833 251.5,234.5C 249.833,234.5 248.167,234.5 246.5,234.5C 246.517,236.565 246.85,238.565 247.5,240.5C 247.664,243.187 247.497,245.854 247,248.5C 242.665,245.331 238.832,241.664 235.5,237.5C 236.222,237.082 236.722,236.416 237,235.5C 237.333,235.833 237.667,236.167 238,236.5C 238.483,235.552 238.649,234.552 238.5,233.5C 239.791,233.737 240.791,233.404 241.5,232.5C 242.046,228.172 242.713,223.838 243.5,219.5C 244.518,220.193 245.518,220.859 246.5,221.5C 246.343,222.873 246.51,224.207 247,225.5C 249.062,227.36 250.395,229.694 251,232.5C 252.183,231.269 253.349,231.269 254.5,232.5C 253.435,234.853 253.602,237.186 255,239.5C 256.194,237.377 256.86,235.043 257,232.5C 259.88,231.41 262.38,229.744 264.5,227.5C 267.117,223.215 270.45,219.548 274.5,216.5 Z"/></g>
<g><path style="opacity:1" fill="#c4272f" d="M 251.5,244.5 C 250.203,246.693 250.203,249.027 251.5,251.5C 252.183,251.137 252.85,250.804 253.5,250.5C 253.833,250.5 254.167,250.5 254.5,250.5C 253.508,252.026 252.008,252.693 250,252.5C 248.615,252.486 247.449,252.152 246.5,251.5C 247.787,250.129 248.453,248.295 248.5,246C 248.494,243.967 248.161,242.134 247.5,240.5C 246.85,238.565 246.517,236.565 246.5,234.5C 248.167,234.5 249.833,234.5 251.5,234.5C 251.5,237.833 251.5,241.167 251.5,244.5 Z"/></g>
<g><path style="opacity:1" fill="#85c71d" d="M 195.5,223.5 C 197.167,223.5 198.833,223.5 200.5,223.5C 195.864,227.304 191.697,231.638 188,236.5C 186.278,242.479 186.112,248.479 187.5,254.5C 187.357,256.262 187.691,257.929 188.5,259.5C 187.737,260.719 186.737,261.719 185.5,262.5C 185.977,263.478 186.643,264.311 187.5,265C 186.874,265.75 186.374,266.584 186,267.5C 184.651,265.066 182.818,264.232 180.5,265C 181.696,264.346 181.696,263.846 180.5,263.5C 179.594,265.386 178.594,267.22 177.5,269C 177.833,269.333 178.167,269.667 178.5,270C 177.552,270.483 176.552,270.649 175.5,270.5C 170.61,259.955 169.277,248.955 171.5,237.5C 172.167,236.167 172.833,234.833 173.5,233.5C 174.833,232.833 175.833,231.833 176.5,230.5C 180.247,229.268 183.914,227.768 187.5,226C 189.833,225.667 192.167,225.333 194.5,225C 195.056,224.617 195.389,224.117 195.5,223.5 Z"/></g>
<g><path style="opacity:1" fill="#fac800" d="M 332.5,238.5 C 332.732,244.62 332.065,250.62 330.5,256.5C 328.471,262.223 325.637,267.557 322,272.5C 302.425,292.358 284.758,313.691 269,336.5C 267.239,339.411 265.739,342.411 264.5,345.5C 263.599,346.29 262.932,347.29 262.5,348.5C 261.957,348.44 261.624,348.107 261.5,347.5C 265.037,338.354 268.037,329.021 270.5,319.5C 273.861,317.105 276.528,314.105 278.5,310.5C 284.564,306.594 289.064,301.26 292,294.5C 293.333,295.833 294.667,295.833 296,294.5C 296.707,292.919 297.54,291.419 298.5,290C 298.167,289.667 297.833,289.333 297.5,289C 298.624,288.751 299.624,288.251 300.5,287.5C 308.895,276.394 317.062,265.061 325,253.5C 330.19,249.788 332.69,244.788 332.5,238.5 Z"/></g>
<g><path style="opacity:1" fill="#596f37" d="M 251.5,244.5 C 251.259,246.886 251.925,248.886 253.5,250.5C 252.85,250.804 252.183,251.137 251.5,251.5C 250.203,249.027 250.203,246.693 251.5,244.5 Z"/></g>
<g><path style="opacity:1" fill="#c4d862" d="M 369.5,229.5 C 372.581,241.944 371.248,253.944 365.5,265.5C 365.556,259.95 366.556,254.617 368.5,249.5C 369.46,242.922 369.793,236.255 369.5,229.5 Z"/></g>
<g><path style="opacity:1" fill="#b4d67f" d="M 292.5,243.5 C 292.5,244.833 292.5,246.167 292.5,247.5C 291.493,250.143 291.493,250.477 292.5,248.5C 294.253,251.287 294.586,254.287 293.5,257.5C 292.824,256.398 292.158,255.398 291.5,254.5C 290.908,251.873 290.575,249.206 290.5,246.5C 291.167,245.5 291.833,244.5 292.5,243.5 Z"/></g>
<g><path style="opacity:1" fill="#abd10e" d="M 368.5,249.5 C 366.556,254.617 365.556,259.95 365.5,265.5C 364.448,265.351 363.448,265.517 362.5,266C 357.617,270.721 352.617,275.221 347.5,279.5C 346.754,280.736 346.421,282.07 346.5,283.5C 342.871,285.129 340.205,287.795 338.5,291.5C 337.402,290.603 337.402,289.77 338.5,289C 337.234,288.691 336.067,288.191 335,287.5C 334.764,285.155 333.93,283.155 332.5,281.5C 332.153,276.527 334.486,273.694 339.5,273C 340.833,271 342.5,269.333 344.5,268C 344.167,267.667 343.833,267.333 343.5,267C 346.44,266.788 348.274,265.288 349,262.5C 349.333,262.833 349.667,263.167 350,263.5C 350.597,259.105 353.43,256.771 358.5,256.5C 359.075,254.798 359.908,253.131 361,251.5C 361.308,252.308 361.808,252.975 362.5,253.5C 364.518,252.141 366.518,250.807 368.5,249.5 Z"/></g>
<g><path style="opacity:1" fill="#e62e3c" d="M 226.5,245.5 C 233.472,246.491 240.139,248.491 246.5,251.5C 247.449,252.152 248.615,252.486 250,252.5C 252.008,252.693 253.508,252.026 254.5,250.5C 257.86,248.494 261.526,246.994 265.5,246C 275.954,243.642 283.62,247.142 288.5,256.5C 288.5,257.5 288.5,258.5 288.5,259.5C 288.369,263.652 286.869,264.318 284,261.5C 283.617,262.056 283.117,262.389 282.5,262.5C 282.806,259.615 282.473,256.948 281.5,254.5C 281.573,252.973 280.906,251.973 279.5,251.5C 278.395,250.4 277.062,249.733 275.5,249.5C 272.305,248.764 268.971,248.097 265.5,247.5C 265.595,248.691 265.262,250.025 264.5,251.5C 265.37,253.274 266.703,254.607 268.5,255.5C 269.167,256.833 270.167,257.833 271.5,258.5C 271.5,259.167 271.5,259.833 271.5,260.5C 257.294,262.174 242.794,263.174 228,263.5C 227.5,262.333 226.667,261.5 225.5,261C 226.381,260.292 227.047,259.458 227.5,258.5C 230.167,257.5 232.833,256.5 235.5,255.5C 237.527,255.662 239.527,255.495 241.5,255C 240.756,253.961 239.756,253.461 238.5,253.5C 233.463,250.884 228.13,250.051 222.5,251C 221.016,251.662 219.683,252.496 218.5,253.5C 217.21,254.058 216.377,255.058 216,256.5C 215.322,260.221 215.489,263.888 216.5,267.5C 214.401,268.612 212.067,269.279 209.5,269.5C 209.5,266.5 209.5,263.5 209.5,260.5C 210.641,254.842 213.641,250.342 218.5,247C 221.014,245.748 223.68,245.248 226.5,245.5 Z M 238.5,253.5 C 237.5,254.167 236.5,254.833 235.5,255.5C 229.356,255.114 224.356,257.281 220.5,262C 219.207,262.49 217.873,262.657 216.5,262.5C 216.405,259.308 217.071,256.308 218.5,253.5C 219.683,252.496 221.016,251.662 222.5,251C 228.13,250.051 233.463,250.884 238.5,253.5 Z M 275.5,249.5 C 277.062,249.733 278.395,250.4 279.5,251.5C 278.758,253.426 277.758,255.259 276.5,257C 273.78,257.045 271.114,256.545 268.5,255.5C 266.703,254.607 265.37,253.274 264.5,251.5C 267.889,249.78 271.556,249.113 275.5,249.5 Z"/></g>
<g><path style="opacity:0.22" fill="#f7afba" d="M 238.5,253.5 C 239.756,253.461 240.756,253.961 241.5,255C 239.527,255.495 237.527,255.662 235.5,255.5C 236.5,254.833 237.5,254.167 238.5,253.5 Z"/></g>
<g><path style="opacity:1" fill="#f47c83" d="M 275.5,249.5 C 271.556,249.113 267.889,249.78 264.5,251.5C 265.262,250.025 265.595,248.691 265.5,247.5C 268.971,248.097 272.305,248.764 275.5,249.5 Z"/></g>
<g><path style="opacity:1" fill="#29ac3a" d="M 131.5,234.5 C 131.989,237.986 133.156,241.319 135,244.5C 135.333,244.167 135.667,243.833 136,243.5C 136.483,244.448 136.649,245.448 136.5,246.5C 138.201,246.966 139.701,246.966 141,246.5C 141.75,247.126 142.584,247.626 143.5,248C 143.167,248.333 142.833,248.667 142.5,249C 143.833,249.333 145.167,249.667 146.5,250C 146.167,250.333 145.833,250.667 145.5,251C 146.76,252.113 147.927,252.28 149,251.5C 149.881,254.885 152.048,256.552 155.5,256.5C 155.584,259.327 156.25,261.994 157.5,264.5C 157.19,267.713 157.523,270.713 158.5,273.5C 159.5,273.833 160.167,274.5 160.5,275.5C 158.61,275.703 157.11,275.037 156,273.5C 155.692,274.308 155.192,274.975 154.5,275.5C 152.009,274.35 149.676,274.35 147.5,275.5C 146.732,276.263 146.232,277.263 146,278.5C 145.617,277.944 145.117,277.611 144.5,277.5C 143.391,277.557 142.391,277.89 141.5,278.5C 138.393,274.621 136.059,270.288 134.5,265.5C 134.267,262.458 133.267,259.792 131.5,257.5C 131.5,257.167 131.5,256.833 131.5,256.5C 131.5,249.167 131.5,241.833 131.5,234.5 Z"/></g>
<g><path style="opacity:0.486" fill="#fcc4d0" d="M 279.5,251.5 C 280.906,251.973 281.573,252.973 281.5,254.5C 281.813,257.247 281.48,259.914 280.5,262.5C 276.539,261.663 273.539,260.329 271.5,258.5C 270.167,257.833 269.167,256.833 268.5,255.5C 271.114,256.545 273.78,257.045 276.5,257C 277.758,255.259 278.758,253.426 279.5,251.5 Z"/></g>
<g><path style="opacity:0.388" fill="#aedba3" d="M 131.5,257.5 C 133.267,259.792 134.267,262.458 134.5,265.5C 132.733,263.208 131.733,260.542 131.5,257.5 Z"/></g>
<g><path style="opacity:0.602" fill="#f7a3b2" d="M 281.5,254.5 C 282.473,256.948 282.806,259.615 282.5,262.5C 280.551,267.342 278.217,272.008 275.5,276.5C 274.833,272.5 274.167,268.5 273.5,264.5C 273.34,262.847 272.674,261.514 271.5,260.5C 271.5,259.833 271.5,259.167 271.5,258.5C 273.539,260.329 276.539,261.663 280.5,262.5C 281.48,259.914 281.813,257.247 281.5,254.5 Z"/></g>
<g><path style="opacity:1" fill="#8fd08f" d="M 157.5,264.5 C 160.385,264.194 163.052,264.527 165.5,265.5C 159.671,265 157.337,267.666 158.5,273.5C 157.523,270.713 157.19,267.713 157.5,264.5 Z"/></g>
<g><path style="opacity:0.192" fill="#f6a1b5" d="M 218.5,253.5 C 217.071,256.308 216.405,259.308 216.5,262.5C 217.873,262.657 219.207,262.49 220.5,262C 224.356,257.281 229.356,255.114 235.5,255.5C 232.833,256.5 230.167,257.5 227.5,258.5C 222.373,260.728 219.706,264.728 219.5,270.5C 218.712,269.23 217.712,268.23 216.5,267.5C 215.489,263.888 215.322,260.221 216,256.5C 216.377,255.058 217.21,254.058 218.5,253.5 Z"/></g>
<g><path style="opacity:1" fill="#78c321" d="M 187.5,254.5 C 190.307,260.985 193.973,266.985 198.5,272.5C 197.448,272.351 196.448,272.517 195.5,273C 197.213,274.378 198.547,276.045 199.5,278C 198.833,278.333 198.167,278.667 197.5,279C 199.563,280.572 200.229,282.405 199.5,284.5C 200.873,286.49 201.873,288.657 202.5,291C 201.167,293 201.167,295 202.5,297C 200.822,297.484 200.156,298.317 200.5,299.5C 191.074,290.743 182.741,281.077 175.5,270.5C 176.552,270.649 177.552,270.483 178.5,270C 178.167,269.667 177.833,269.333 177.5,269C 178.594,267.22 179.594,265.386 180.5,263.5C 181.696,263.846 181.696,264.346 180.5,265C 182.818,264.232 184.651,265.066 186,267.5C 186.374,266.584 186.874,265.75 187.5,265C 186.643,264.311 185.977,263.478 185.5,262.5C 186.737,261.719 187.737,260.719 188.5,259.5C 187.691,257.929 187.357,256.262 187.5,254.5 Z"/></g>
<g><path style="opacity:1" fill="#b6d332" d="M 365.5,265.5 C 360.396,277.785 352.729,288.285 342.5,297C 322.803,313.175 303.136,329.342 283.5,345.5C 283.5,344.167 283.5,342.833 283.5,341.5C 288.186,337.608 292.853,333.441 297.5,329C 298.993,327.632 300.493,327.465 302,328.5C 302.318,326.939 303.151,325.772 304.5,325C 304.167,324.667 303.833,324.333 303.5,324C 316.963,315.035 328.63,304.201 338.5,291.5C 340.205,287.795 342.871,285.129 346.5,283.5C 346.421,282.07 346.754,280.736 347.5,279.5C 352.617,275.221 357.617,270.721 362.5,266C 363.448,265.517 364.448,265.351 365.5,265.5 Z"/></g>
<g><path style="opacity:1" fill="#c92031" d="M 227.5,258.5 C 227.047,259.458 226.381,260.292 225.5,261C 226.667,261.5 227.5,262.333 228,263.5C 242.794,263.174 257.294,262.174 271.5,260.5C 272.674,261.514 273.34,262.847 273.5,264.5C 273.5,267.5 273.5,270.5 273.5,273.5C 266.005,272.831 258.505,273.165 251,274.5C 239.259,273.342 227.425,273.342 215.5,274.5C 215.649,275.552 215.483,276.552 215,277.5C 213.855,277.619 212.688,277.952 211.5,278.5C 210.833,277.5 210.167,276.5 209.5,275.5C 208.746,270.537 208.413,265.537 208.5,260.5C 208.833,260.5 209.167,260.5 209.5,260.5C 209.5,263.5 209.5,266.5 209.5,269.5C 212.067,269.279 214.401,268.612 216.5,267.5C 217.712,268.23 218.712,269.23 219.5,270.5C 219.706,264.728 222.373,260.728 227.5,258.5 Z"/></g>
<g><path style="opacity:0.949" fill="#d85e74" d="M 273.5,264.5 C 274.167,268.5 274.833,272.5 275.5,276.5C 275.217,277.289 274.717,277.956 274,278.5C 273.506,276.866 273.34,275.199 273.5,273.5C 273.5,270.5 273.5,267.5 273.5,264.5 Z"/></g>
<g><path style="opacity:1" fill="#b61d2d" d="M 288.5,259.5 C 289.952,261.848 290.618,264.514 290.5,267.5C 290.232,270.517 289.898,273.517 289.5,276.5C 288.833,276.5 288.5,276.833 288.5,277.5C 287.25,277.577 286.417,278.244 286,279.5C 285.667,279.167 285.333,278.833 285,278.5C 281.509,279.043 278.175,280.043 275,281.5C 274,281.167 273,280.833 272,280.5C 255.992,281.862 240.158,282.362 224.5,282C 220.745,282.929 218.079,285.096 216.5,288.5C 213.793,285.753 212.127,282.42 211.5,278.5C 212.688,277.952 213.855,277.619 215,277.5C 215.483,276.552 215.649,275.552 215.5,274.5C 227.425,273.342 239.259,273.342 251,274.5C 258.505,273.165 266.005,272.831 273.5,273.5C 273.34,275.199 273.506,276.866 274,278.5C 274.717,277.956 275.217,277.289 275.5,276.5C 278.217,272.008 280.551,267.342 282.5,262.5C 283.117,262.389 283.617,262.056 284,261.5C 286.869,264.318 288.369,263.652 288.5,259.5 Z"/></g>
<g><path style="opacity:1" fill="#29af35" d="M 147.5,275.5 C 147.527,278.39 148.693,279.39 151,278.5C 151.617,279.449 151.451,280.282 150.5,281C 151.742,281.311 152.742,280.811 153.5,279.5C 156.115,279.856 157.948,281.189 159,283.5C 159.333,283.167 159.667,282.833 160,282.5C 166.609,286.776 172.609,291.776 178,297.5C 178.333,297.167 178.667,296.833 179,296.5C 182.915,300.704 187.415,304.204 192.5,307C 197,311.167 201.5,315.333 206,319.5C 207.71,323.931 210.544,327.431 214.5,330C 214.167,330.333 213.833,330.667 213.5,331C 215.078,332.094 216.745,332.928 218.5,333.5C 220.735,334.228 222.568,335.561 224,337.5C 226.494,342.488 228.994,347.488 231.5,352.5C 232.5,352.5 233.5,352.5 234.5,352.5C 234.248,355.244 234.915,357.744 236.5,360C 235.527,360.349 234.694,361.182 234,362.5C 233.329,361.748 232.496,361.414 231.5,361.5C 226.195,355.86 220.861,350.193 215.5,344.5C 214.415,342.413 212.749,341.08 210.5,340.5C 210.131,338.559 209.464,336.725 208.5,335C 207.551,334.383 206.718,334.549 206,335.5C 204.024,334.457 203.524,333.123 204.5,331.5C 199.488,326.988 194.655,322.321 190,317.5C 189.282,318.451 188.449,318.617 187.5,318C 181.277,312.208 174.61,306.874 167.5,302C 161.995,296.162 156.162,290.662 150,285.5C 147.9,282.949 146.067,280.283 144.5,277.5C 145.117,277.611 145.617,277.944 146,278.5C 146.232,277.263 146.732,276.263 147.5,275.5 Z"/></g>
<g><path style="opacity:1" fill="#a51929" d="M 288.5,277.5 C 288.204,279.403 287.537,281.07 286.5,282.5C 285.069,282.881 284.236,283.881 284,285.5C 282.969,283.579 281.469,283.579 279.5,285.5C 281.783,287.486 281.116,288.653 277.5,289C 261.513,289.967 245.513,290.634 229.5,291C 226.402,291.938 224.069,293.772 222.5,296.5C 220.147,294.14 218.147,291.473 216.5,288.5C 218.079,285.096 220.745,282.929 224.5,282C 240.158,282.362 255.992,281.862 272,280.5C 273,280.833 274,281.167 275,281.5C 278.175,280.043 281.509,279.043 285,278.5C 285.333,278.833 285.667,279.167 286,279.5C 286.417,278.244 287.25,277.577 288.5,277.5 Z"/></g>
<g><path style="opacity:1" fill="#e9f0c4" d="M 331.5,279.5 C 333.638,289.697 330.305,292.03 321.5,286.5C 321.5,286.167 321.5,285.833 321.5,285.5C 321.5,284.5 321.5,283.5 321.5,282.5C 322.315,283.429 323.148,284.429 324,285.5C 324.333,282.833 324.667,280.167 325,277.5C 325.49,278.793 325.657,280.127 325.5,281.5C 327.124,281.36 328.29,282.027 329,283.5C 329.815,281.449 330.648,280.116 331.5,279.5 Z"/></g>
<g><path style="opacity:1" fill="#a7d013" d="M 331.5,279.5 C 332.338,279.842 332.672,280.508 332.5,281.5C 333.93,283.155 334.764,285.155 335,287.5C 336.067,288.191 337.234,288.691 338.5,289C 337.402,289.77 337.402,290.603 338.5,291.5C 328.63,304.201 316.963,315.035 303.5,324C 303.833,324.333 304.167,324.667 304.5,325C 303.151,325.772 302.318,326.939 302,328.5C 300.493,327.465 298.993,327.632 297.5,329C 292.853,333.441 288.186,337.608 283.5,341.5C 283.5,342.833 283.5,344.167 283.5,345.5C 281.5,348.167 279.167,350.5 276.5,352.5C 276.44,351.957 276.107,351.624 275.5,351.5C 274.06,352.952 272.394,353.952 270.5,354.5C 270.196,353.85 269.863,353.183 269.5,352.5C 273.111,347.612 275.945,342.279 278,336.5C 283.172,327.793 289.505,320.126 297,313.5C 302.885,306.762 308.552,299.762 314,292.5C 316.106,289.882 318.606,287.882 321.5,286.5C 330.305,292.03 333.638,289.697 331.5,279.5 Z"/></g>
<g><path style="opacity:1" fill="#51ba4b" d="M 144.5,277.5 C 146.067,280.283 147.9,282.949 150,285.5C 156.162,290.662 161.995,296.162 167.5,302C 174.61,306.874 181.277,312.208 187.5,318C 188.449,318.617 189.282,318.451 190,317.5C 194.655,322.321 199.488,326.988 204.5,331.5C 203.524,333.123 204.024,334.457 206,335.5C 206.718,334.549 207.551,334.383 208.5,335C 209.464,336.725 210.131,338.559 210.5,340.5C 190.755,324.867 171.255,308.867 152,292.5C 147.874,288.22 144.374,283.554 141.5,278.5C 142.391,277.89 143.391,277.557 144.5,277.5 Z"/></g>
<g><path style="opacity:1" fill="#23ae37" d="M 186.5,292.5 C 189.338,299.139 193.838,304.472 200,308.5C 206.083,314.743 211.583,321.41 216.5,328.5C 217.441,330.05 218.107,331.716 218.5,333.5C 216.745,332.928 215.078,332.094 213.5,331C 213.833,330.667 214.167,330.333 214.5,330C 210.544,327.431 207.71,323.931 206,319.5C 201.5,315.333 197,311.167 192.5,307C 187.415,304.204 182.915,300.704 179,296.5C 178.667,296.833 178.333,297.167 178,297.5C 172.609,291.776 166.609,286.776 160,282.5C 159.667,282.833 159.333,283.167 159,283.5C 157.948,281.189 156.115,279.856 153.5,279.5C 152.742,280.811 151.742,281.311 150.5,281C 151.451,280.282 151.617,279.449 151,278.5C 148.693,279.39 147.527,278.39 147.5,275.5C 149.676,274.35 152.009,274.35 154.5,275.5C 155.192,274.975 155.692,274.308 156,273.5C 157.11,275.037 158.61,275.703 160.5,275.5C 161.449,276.152 162.615,276.486 164,276.5C 165.681,276.392 166.848,275.725 167.5,274.5C 168.931,274.119 169.764,273.119 170,271.5C 170.333,272.833 170.667,274.167 171,275.5C 174.401,278.635 177.067,282.302 179,286.5C 181.086,289.094 183.586,291.094 186.5,292.5 Z"/></g>
<g><path style="opacity:1" fill="#92d490" d="M 167.5,274.5 C 166.848,275.725 165.681,276.392 164,276.5C 162.615,276.486 161.449,276.152 160.5,275.5C 162.903,275.552 165.236,275.219 167.5,274.5 Z"/></g>
<g><path style="opacity:1" fill="#397a32" d="M 289.5,276.5 C 290.461,278.265 290.795,280.265 290.5,282.5C 290.5,282.833 290.5,283.167 290.5,283.5C 286.805,288.189 283.139,292.855 279.5,297.5C 278.609,298.11 277.609,298.443 276.5,298.5C 277.925,297.078 278.925,295.411 279.5,293.5C 282.579,290.35 284.913,286.683 286.5,282.5C 287.537,281.07 288.204,279.403 288.5,277.5C 288.5,276.833 288.833,276.5 289.5,276.5 Z"/></g>
<g><path style="opacity:1" fill="#6bbe24" d="M 198.5,272.5 C 201.167,275.5 203.833,278.5 206.5,281.5C 217.834,294.846 227.167,309.513 234.5,325.5C 233.449,333.113 234.616,340.446 238,347.5C 238.451,345.071 239.285,344.904 240.5,347C 240.201,348.32 240.034,349.82 240,351.5C 239.617,352.056 239.117,352.389 238.5,352.5C 228.531,332.894 215.864,315.227 200.5,299.5C 200.156,298.317 200.822,297.484 202.5,297C 201.167,295 201.167,293 202.5,291C 201.873,288.657 200.873,286.49 199.5,284.5C 200.229,282.405 199.563,280.572 197.5,279C 198.167,278.667 198.833,278.333 199.5,278C 198.547,276.045 197.213,274.378 195.5,273C 196.448,272.517 197.448,272.351 198.5,272.5 Z"/></g>
<g><path style="opacity:1" fill="#911827" d="M 286.5,282.5 C 284.913,286.683 282.579,290.35 279.5,293.5C 277.495,292.876 275.828,293.71 274.5,296C 262.309,297.107 249.976,298.107 237.5,299C 235.162,299.837 232.828,300.67 230.5,301.5C 228.484,300.822 226.484,300.156 224.5,299.5C 223.833,298.5 223.167,297.5 222.5,296.5C 224.069,293.772 226.402,291.938 229.5,291C 245.513,290.634 261.513,289.967 277.5,289C 281.116,288.653 281.783,287.486 279.5,285.5C 281.469,283.579 282.969,283.579 284,285.5C 284.236,283.881 285.069,282.881 286.5,282.5 Z"/></g>
<g><path style="opacity:1" fill="#7baa14" d="M 330.5,256.5 C 331.498,260.006 331.498,263.672 330.5,267.5C 329.542,267.953 328.708,268.619 328,269.5C 325.563,273.749 323.397,278.083 321.5,282.5C 321.5,283.5 321.5,284.5 321.5,285.5C 320.883,285.389 320.383,285.056 320,284.5C 315.466,288.699 311.299,293.199 307.5,298C 305.595,299.421 303.595,300.588 301.5,301.5C 295.441,307.064 290.274,313.397 286,320.5C 282.111,323.278 279.445,326.944 278,331.5C 274.951,333.927 272.117,336.593 269.5,339.5C 268.735,342.426 267.068,344.426 264.5,345.5C 265.739,342.411 267.239,339.411 269,336.5C 284.758,313.691 302.425,292.358 322,272.5C 325.637,267.557 328.471,262.223 330.5,256.5 Z"/></g>
<g><path style="opacity:1" fill="#baa307" d="M 290.5,283.5 C 290.41,285.696 290.077,287.863 289.5,290C 287.298,293.591 285.465,297.425 284,301.5C 279.45,305.681 275.283,310.181 271.5,315C 270.906,315.464 270.239,315.631 269.5,315.5C 272.432,309.245 275.766,303.245 279.5,297.5C 283.139,292.855 286.805,288.189 290.5,283.5 Z"/></g>
<g><path style="opacity:1" fill="#7d1b25" d="M 279.5,293.5 C 278.925,295.411 277.925,297.078 276.5,298.5C 274.529,300.808 272.529,303.142 270.5,305.5C 268.628,306.511 266.628,307.345 264.5,308C 254.12,308.785 243.787,308.619 233.5,307.5C 231.938,307.267 230.605,306.6 229.5,305.5C 227.833,303.5 226.167,301.5 224.5,299.5C 226.484,300.156 228.484,300.822 230.5,301.5C 232.828,300.67 235.162,299.837 237.5,299C 249.976,298.107 262.309,297.107 274.5,296C 275.828,293.71 277.495,292.876 279.5,293.5 Z"/></g>
<g><path style="opacity:1" fill="#168b37" d="M 209.5,275.5 C 210.167,276.5 210.833,277.5 211.5,278.5C 212.127,282.42 213.793,285.753 216.5,288.5C 218.147,291.473 220.147,294.14 222.5,296.5C 223.167,297.5 223.833,298.5 224.5,299.5C 226.167,301.5 227.833,303.5 229.5,305.5C 233.233,310.74 237.566,315.574 242.5,320C 254.454,324.627 263.12,321.127 268.5,309.5C 269.167,308.167 269.833,306.833 270.5,305.5C 272.529,303.142 274.529,300.808 276.5,298.5C 277.609,298.443 278.609,298.11 279.5,297.5C 275.766,303.245 272.432,309.245 269.5,315.5C 268.5,316.833 267.5,318.167 266.5,319.5C 261.813,319.848 258.48,322.181 256.5,326.5C 252.184,328.077 248.184,327.577 244.5,325C 241.988,321.989 239.322,319.156 236.5,316.5C 236.167,317.167 235.833,317.833 235.5,318.5C 237.453,323.405 239.12,328.405 240.5,333.5C 240.457,334.416 240.124,335.083 239.5,335.5C 238.341,331.849 236.674,328.515 234.5,325.5C 227.167,309.513 217.834,294.846 206.5,281.5C 208.545,280.077 209.545,278.077 209.5,275.5 Z"/></g>
<g><path style="opacity:1" fill="#0e6733" d="M 270.5,305.5 C 269.833,306.833 269.167,308.167 268.5,309.5C 264.461,313.735 259.461,315.402 253.5,314.5C 247.562,314.688 241.896,313.522 236.5,311C 234.944,310.28 233.944,309.113 233.5,307.5C 243.787,308.619 254.12,308.785 264.5,308C 266.628,307.345 268.628,306.511 270.5,305.5 Z"/></g>
<g><path style="opacity:1" fill="#139237" d="M 175.5,270.5 C 182.741,281.077 191.074,290.743 200.5,299.5C 215.864,315.227 228.531,332.894 238.5,352.5C 239.773,354.713 240.773,357.046 241.5,359.5C 241.631,360.239 241.464,360.906 241,361.5C 236.667,354.5 232.333,347.5 228,340.5C 224.587,335.924 220.754,331.924 216.5,328.5C 211.583,321.41 206.083,314.743 200,308.5C 193.838,304.472 189.338,299.139 186.5,292.5C 183.353,287.833 180.353,282.999 177.5,278C 176.637,275.773 175.637,273.607 174.5,271.5C 174.624,270.893 174.957,270.56 175.5,270.5 Z"/></g>
<g><path style="opacity:1" fill="#0a7a39" d="M 229.5,305.5 C 230.605,306.6 231.938,307.267 233.5,307.5C 233.944,309.113 234.944,310.28 236.5,311C 241.896,313.522 247.562,314.688 253.5,314.5C 259.461,315.402 264.461,313.735 268.5,309.5C 263.12,321.127 254.454,324.627 242.5,320C 237.566,315.574 233.233,310.74 229.5,305.5 Z"/></g>
<g><path style="opacity:1" fill="#119d3b" d="M 266.5,319.5 C 265.439,322.622 264.105,325.622 262.5,328.5C 261.153,327.829 259.986,327.829 259,328.5C 256.026,333.909 253.526,339.576 251.5,345.5C 252.025,346.192 252.692,346.692 253.5,347C 251.932,349.304 250.765,351.804 250,354.5C 248.112,352.256 246.612,352.256 245.5,354.5C 244.269,347.905 242.269,341.571 239.5,335.5C 240.124,335.083 240.457,334.416 240.5,333.5C 239.12,328.405 237.453,323.405 235.5,318.5C 235.833,317.833 236.167,317.167 236.5,316.5C 239.322,319.156 241.988,321.989 244.5,325C 248.184,327.577 252.184,328.077 256.5,326.5C 258.48,322.181 261.813,319.848 266.5,319.5 Z"/></g>
<g><path style="opacity:0.737" fill="#9bd48d" d="M 210.5,340.5 C 212.749,341.08 214.415,342.413 215.5,344.5C 213.251,343.92 211.585,342.587 210.5,340.5 Z"/></g>
<g><path style="opacity:1" fill="#7db516" d="M 301.5,301.5 C 298.751,308.758 294.251,314.758 288,319.5C 281.71,329.773 274.71,339.44 267,348.5C 266.489,350.878 265.822,353.212 265,355.5C 261.564,359.09 258.398,362.757 255.5,366.5C 257.443,360.338 259.776,354.338 262.5,348.5C 262.932,347.29 263.599,346.29 264.5,345.5C 267.068,344.426 268.735,342.426 269.5,339.5C 272.117,336.593 274.951,333.927 278,331.5C 279.445,326.944 282.111,323.278 286,320.5C 290.274,313.397 295.441,307.064 301.5,301.5 Z"/></g>
<g><path style="opacity:1" fill="#5bb629" d="M 234.5,325.5 C 236.674,328.515 238.341,331.849 239.5,335.5C 242.269,341.571 244.269,347.905 245.5,354.5C 247.315,362.042 248.148,369.709 248,377.5C 246.121,371.268 243.955,365.268 241.5,359.5C 240.773,357.046 239.773,354.713 238.5,352.5C 239.117,352.389 239.617,352.056 240,351.5C 240.034,349.82 240.201,348.32 240.5,347C 239.285,344.904 238.451,345.071 238,347.5C 234.616,340.446 233.449,333.113 234.5,325.5 Z"/></g>
<g><path style="opacity:1" fill="#91c813" d="M 321.5,285.5 C 321.5,285.833 321.5,286.167 321.5,286.5C 318.606,287.882 316.106,289.882 314,292.5C 308.552,299.762 302.885,306.762 297,313.5C 289.505,320.126 283.172,327.793 278,336.5C 275.945,342.279 273.111,347.612 269.5,352.5C 269.863,353.183 270.196,353.85 270.5,354.5C 268.334,356.837 266.334,359.337 264.5,362C 265.167,362.333 265.833,362.667 266.5,363C 261.902,365.436 259.568,369.27 259.5,374.5C 257.571,375.006 255.905,376.006 254.5,377.5C 253.571,376.311 253.238,374.978 253.5,373.5C 254.167,371.167 254.833,368.833 255.5,366.5C 258.398,362.757 261.564,359.09 265,355.5C 265.822,353.212 266.489,350.878 267,348.5C 274.71,339.44 281.71,329.773 288,319.5C 294.251,314.758 298.751,308.758 301.5,301.5C 303.595,300.588 305.595,299.421 307.5,298C 311.299,293.199 315.466,288.699 320,284.5C 320.383,285.056 320.883,285.389 321.5,285.5 Z"/></g>
<g><path style="opacity:1" fill="#2fa73a" d="M 262.5,328.5 C 255.413,345.1 251.413,362.433 250.5,380.5C 250.5,383.833 250.5,387.167 250.5,390.5C 245.072,380.91 238.739,371.243 231.5,361.5C 232.496,361.414 233.329,361.748 234,362.5C 234.694,361.182 235.527,360.349 236.5,360C 234.915,357.744 234.248,355.244 234.5,352.5C 233.5,352.5 232.5,352.5 231.5,352.5C 228.994,347.488 226.494,342.488 224,337.5C 222.568,335.561 220.735,334.228 218.5,333.5C 218.107,331.716 217.441,330.05 216.5,328.5C 220.754,331.924 224.587,335.924 228,340.5C 232.333,347.5 236.667,354.5 241,361.5C 241.464,360.906 241.631,360.239 241.5,359.5C 243.955,365.268 246.121,371.268 248,377.5C 248.148,369.709 247.315,362.042 245.5,354.5C 246.612,352.256 248.112,352.256 250,354.5C 250.765,351.804 251.932,349.304 253.5,347C 252.692,346.692 252.025,346.192 251.5,345.5C 253.526,339.576 256.026,333.909 259,328.5C 259.986,327.829 261.153,327.829 262.5,328.5 Z"/></g>
<g><path style="opacity:1" fill="#a7d046" d="M 276.5,352.5 C 270.826,359.839 265.16,367.172 259.5,374.5C 259.568,369.27 261.902,365.436 266.5,363C 265.833,362.667 265.167,362.333 264.5,362C 266.334,359.337 268.334,356.837 270.5,354.5C 272.394,353.952 274.06,352.952 275.5,351.5C 276.107,351.624 276.44,351.957 276.5,352.5 Z"/></g>
<g><path style="opacity:1" fill="#a4cc39" d="M 253.5,373.5 C 253.238,374.978 253.571,376.311 254.5,377.5C 255.905,376.006 257.571,375.006 259.5,374.5C 257.003,380.165 254.003,385.498 250.5,390.5C 250.5,387.167 250.5,383.833 250.5,380.5C 251.869,378.309 252.869,375.975 253.5,373.5 Z"/></g>
</svg>
