<?xml version="1.0" encoding="utf-8"?>
<!-- Generator: Adobe Illustrator 23.1.0, SVG Export Plug-In . SVG Version: 6.00 Build 0)  -->
<svg version="1.1" id="Capa_1" xmlns="http://www.w3.org/2000/svg" xmlns:xlink="http://www.w3.org/1999/xlink" x="0px" y="0px"
	 viewBox="0 0 120.2 125.4" enable-background="new 0 0 120.2 125.4" xml:space="preserve">
<path fill="#CEA642" d="M112.3,46.5c-6.6-23.3-29.4-41-54.2-38.1c-0.1-0.2-0.3-0.2-0.6-0.2c-22.6,2.4-41,18.8-47.8,40.1
	c-0.8,2.7-1.5,5.4-2,8.2c-0.2,0.1-0.2,0.4-0.1,0.5c-0.2,1-0.3,2-0.4,3c-0.1,0.1-0.1,0.2,0,0.3c-0.9,7.3-0.4,14.8,1.6,21.8
	c0.8,2.9,2,5.6,3.4,8.1c0,0.2,0.1,0.4,0.3,0.5c3.8,6.5,9.4,11.7,16,16c9.8,6.4,20.5,10.7,32.4,10.6c1.3,0,2.6-0.1,3.9-0.2
	c0.2,0.2,0.7,0.2,0.8-0.1c8.9-0.9,17.7-4,25.3-8.7c9.9-6.2,17-14.6,20.6-25.7C115.1,70.9,115.6,58.2,112.3,46.5z"/>
<linearGradient id="SVGID_1_" gradientUnits="userSpaceOnUse" x1="50.8013" y1="60.8044" x2="114.279" y2="81.6501">
	<stop  offset="9.587042e-02" style="stop-color:#7D6225"/>
	<stop  offset="0.1764" style="stop-color:#806527"/>
	<stop  offset="0.2254" style="stop-color:#876A29"/>
	<stop  offset="0.5809" style="stop-color:#B9943A"/>
	<stop  offset="0.7558" style="stop-color:#CEA642"/>
</linearGradient>
<path fill="url(#SVGID_1_)" d="M47.7,97.8L85.9,111c1.7-0.8,3.3-1.7,4.9-2.7c9.9-6.2,17-14.6,20.6-25.7c3.6-11.1,4.2-23.2,1.3-34.6
	L73.4,29.6L47.7,97.8z"/>
<path fill="#FFFFFF" stroke="#FFFFFF" stroke-width="2.7" stroke-linecap="round" stroke-linejoin="round" stroke-miterlimit="10" d="
	M60.6,30c5.4-3.3,13.8-1.1,16.4,1.7c4.6,4.8,5.8,12.1,3,17.9c-0.6,1.3-1.1,2.6-1.9,3.8c-3.8,5.9-4.8,12.4-4.1,19.4
	c0.6,5.9-1.7,11.1-6,15.2c-3.9,3.8-8.4,6.9-13.8,8.4c-4.8,1.4-8.2-0.2-11.2-4.1c-6.1-8.2-3-21.8,4.1-29.1c2.2-2.2,2.9-4.3,2.7-7.4
	c-0.3-4.9,0-9.9,1.2-14.7C52.4,35.8,55.9,32.4,60.6,30z"/>
<g>
	<path fill="none" stroke="#CEA642" stroke-width="0.75" stroke-linecap="round" stroke-linejoin="round" d="M44.1,88
		c7.3-15.1,16.6-31,10.1-48.3"/>
</g>
<g>
	<path fill="none" stroke="#CEA642" stroke-width="0.75" stroke-linecap="round" stroke-linejoin="round" d="M56.3,88.9
		c1.2-3.4,2.6-6.7,3.8-10.2c2.9-8.3,5-15.7,5.4-25.7c0.3-5.9,1.6-12-1-17.3"/>
</g>
<g>
	<path fill="none" stroke="#CEA642" stroke-width="0.75" stroke-linecap="round" stroke-linejoin="round" d="M49.1,92.4
		c4.3-10.5,7.8-21.3,10.4-32.3c1.9-8.3,3.3-17.2,0-25"/>
</g>
<g>
	<path fill="none" stroke="#CEA642" stroke-width="0.75" stroke-linecap="round" stroke-linejoin="round" d="M53.1,43.7
		c6.2-1.3,10-1.5,14.3-1.4c1.2,0,5,0.5,6,0.8"/>
</g>
<g>
	<path fill="none" stroke="#CEA642" stroke-width="0.75" stroke-linecap="round" stroke-linejoin="round" d="M52.4,52.1
		c3.1-1,6.2-1.7,9.4-2.1c4.9-0.7,6.8,0.5,9,2.8c0.3,0.3,0.4,0.9,0,0.8"/>
</g>
<g>
	<path fill="none" stroke="#CEA642" stroke-width="0.75" stroke-linecap="round" stroke-linejoin="round" d="M52.9,61.8
		c4.3-0.8,8.9-0.3,12.8,1.6"/>
</g>
<g>
	<path fill="none" stroke="#CEA642" stroke-width="0.75" stroke-linecap="round" stroke-linejoin="round" d="M44.1,72.3
		c3.1-0.3,6.2-0.6,9.3-0.9c2.1-0.2,4.2-0.4,6.2,0.2c2.2,0.6,4.1,2,5.8,3.4"/>
</g>
<g>
	<path fill="none" stroke="#CEA642" stroke-width="0.75" stroke-linecap="round" stroke-linejoin="round" d="M43.3,82.1
		c4.3-2,9.2-2.6,13.9-1.7c2.3,0.4,4.7,1.4,6,3.4c-0.2-0.2-0.4-0.3-0.5-0.5"/>
</g>
</svg>
