<?xml version="1.0" encoding="utf-8"?>
<!-- Generator: Adobe Illustrator 23.1.0, SVG Export Plug-In . SVG Version: 6.00 Build 0)  -->
<svg version="1.1" id="Capa_1" xmlns="http://www.w3.org/2000/svg" xmlns:xlink="http://www.w3.org/1999/xlink" x="0px" y="0px"
	 viewBox="0 0 120.2 125.4" enable-background="new 0 0 120.2 125.4" xml:space="preserve">
<path fill="#CF8055" d="M112.4,46.7c-6.5-23.3-29.2-41.2-54-38.4c-0.1-0.2-0.3-0.2-0.6-0.2C35.1,10.4,16.6,26.7,9.8,48
	c-0.9,2.7-1.5,5.4-2.1,8.2c-0.2,0.1-0.3,0.4-0.1,0.5c-0.2,1-0.3,2-0.4,3c-0.1,0.1-0.1,0.2,0,0.3c-0.9,7.3-0.5,14.8,1.5,21.8
	c0.8,2.9,2,5.6,3.4,8.1c0,0.2,0.1,0.4,0.3,0.5c3.8,6.5,9.4,11.8,15.9,16.1c9.8,6.4,20.5,10.8,32.3,10.7c1.3,0,2.6-0.1,3.9-0.2
	c0.2,0.2,0.7,0.2,0.8-0.1c9-0.8,17.7-3.9,25.3-8.6c9.9-6.2,17.1-14.5,20.7-25.6C115,71.1,115.7,58.4,112.4,46.7z"/>
<linearGradient id="SVGID_1_" gradientUnits="userSpaceOnUse" x1="52.9218" y1="58.36" x2="112.0661" y2="90.4864">
	<stop  offset="9.342061e-02" style="stop-color:#704532"/>
	<stop  offset="0.3299" style="stop-color:#915A3F"/>
	<stop  offset="0.6617" style="stop-color:#BD744E"/>
	<stop  offset="0.8253" style="stop-color:#CF8055"/>
</linearGradient>
<path fill="url(#SVGID_1_)" d="M113.2,50.3L58.7,26L47.2,96l37,15.8c2.2-1,4.4-2.2,6.5-3.5c9.9-6.2,17.1-14.5,20.7-25.6
	C114.7,72.3,115.5,61.1,113.2,50.3z"/>
<path fill="#FFFFFF" stroke="#FFFFFF" stroke-width="2.7" stroke-linecap="round" stroke-linejoin="round" stroke-miterlimit="10" d="
	M60,97.7c-29.8-4.6-29-35.7-29-35.7c0.4-30.2,29-33.8,29-33.8s28.6,3.6,29,33.8C88.9,62.1,89.8,93.1,60,97.7z"/>
<path fill="#CF8055" d="M60,91.9c-24.1-3.1-24.3-30.5-24.3-30.5c1-24.7,24.3-27,24.3-27s23.3,2.3,24.3,27
	C84.3,61.3,84.1,88.7,60,91.9z"/>
<path fill="#FFFFFF" stroke="#CF8055" stroke-miterlimit="10" d="M62.2,45.7c-0.3-1-0.5-2-0.3-3c0.3-1,1.2-1.9,2.2-1.7
	c-0.3-1,1.1-1.6,2.1-1.7c1.2-0.1,2.5-0.2,3.5,0.4c1,0.6,1.5,2.2,0.6,3c1.9,0.5,3.7,1.5,4.7,3.2s1.1,4-0.2,5.5c3.1,1.5,4.7,4,5.3,7.4
	c0.6,3.4-0.5,7.4-3.9,7.7c2.6,2.6,3.2,5,2.3,8.5c-0.5,1.7-1.6,4.2-3.1,5.1c-1.5,0.9-3.8,1.6-4.5,0c-0.2,2.4-0.8,3.1-2.2,3.9
	c-1.3,0.8-2.9,2-3.8,0.7c-0.1,1-1,2-2,2c-1,0.1-2.1-0.7-2.3-1.7c-0.1-0.7,0.1-1.4,0.1-2.1c0.1-1.5-0.6-2.9-0.7-4.4
	c-0.1-1.5,0.9-3.2,2.4-3c-2-1.9-1.9-5.5,0.2-7.2c-1.6-0.9-2-3.4-0.8-4.7c0.3-0.3,0.7-0.6,0.7-1c0.1-0.5-0.2-1-0.6-1.4
	c-0.8-1.1-1.4-2.3-1.3-3.6c0.1-1.3,1-2.6,2.3-2.8c-2.6-2.3-2.8-6.9-0.5-9.4"/>
<path fill="#FFFFFF" stroke="#CF8055" stroke-miterlimit="10" d="M57.7,45.7c0.3-1,0.5-2,0.3-3c-0.3-1-1.2-1.9-2.2-1.7
	c0.3-1-1.1-1.6-2.1-1.7c-1.2-0.1-2.5-0.2-3.5,0.4c-1,0.6-1.5,2.2-0.6,3c-1.9,0.5-3.7,1.5-4.7,3.2s-1.1,4,0.2,5.5
	c-3.1,1.5-4.7,4-5.3,7.4s0.5,7.4,3.9,7.7c-2.6,2.6-3.2,5-2.3,8.5c0.5,1.7,1.6,4.2,3.1,5.1s3.8,1.6,4.5,0c0.2,2.4,0.8,3.1,2.2,3.9
	c1.3,0.8,2.9,2,3.8,0.7c0.1,1,1,2,2,2c1,0.1,2.1-0.7,2.3-1.7c0.1-0.7-0.1-1.4-0.1-2.1c-0.1-1.5,0.6-2.9,0.7-4.4
	c0.1-1.5-0.9-3.2-2.4-3c2-1.9,1.9-5.5-0.2-7.2c1.6-0.9,2-3.4,0.8-4.7c-0.3-0.3-0.7-0.6-0.7-1c-0.1-0.5,0.2-1,0.6-1.4
	c0.8-1.1,1.4-2.3,1.3-3.6c-0.1-1.3-1-2.6-2.3-2.8c2.6-2.3,2.8-6.9,0.5-9.4"/>
</svg>
