<?xml version="1.0" encoding="utf-8"?>
<!-- Generator: Adobe Illustrator 23.1.0, SVG Export Plug-In . SVG Version: 6.00 Build 0)  -->
<svg version="1.1" id="Capa_1" xmlns="http://www.w3.org/2000/svg" xmlns:xlink="http://www.w3.org/1999/xlink" x="0px" y="0px"
	 viewBox="0 0 120.2 125.4" enable-background="new 0 0 120.2 125.4" xml:space="preserve">
<path fill="#E8932C" d="M112.2,46.1C105.3,22.9,82.4,5.3,57.7,8.4c-0.1-0.2-0.3-0.2-0.6-0.2C34.5,10.8,16.2,27.3,9.6,48.7
	c-0.8,2.7-1.5,5.4-2,8.2c-0.2,0.1-0.2,0.4-0.1,0.5c-0.2,1-0.3,2-0.4,3c-0.1,0.1-0.1,0.2,0,0.3C6.3,68,6.8,75.5,8.9,82.5
	c0.9,2.9,2,5.6,3.5,8c0,0.2,0.1,0.4,0.3,0.5c3.9,6.5,9.5,11.7,16.1,15.9c9.8,6.3,20.6,10.6,32.4,10.4c1.3,0,2.6-0.1,3.9-0.2
	c0.2,0.2,0.7,0.2,0.8-0.1c8.9-0.9,17.7-4.1,25.2-8.9c9.8-6.3,16.9-14.7,20.4-25.9C115.1,70.6,115.6,57.9,112.2,46.1z"/>
<linearGradient id="SVGID_1_" gradientUnits="userSpaceOnUse" x1="41.66" y1="57.9267" x2="114.6286" y2="81.8891">
	<stop  offset="9.811620e-02" style="stop-color:#774916"/>
	<stop  offset="0.5845" style="stop-color:#BE7724"/>
	<stop  offset="0.8216" style="stop-color:#E8932C"/>
</linearGradient>
<path fill="url(#SVGID_1_)" d="M51.7,97.1l37.6,12.1c0.6-0.4,1.2-0.7,1.8-1.1c9.8-6.3,16.9-14.7,20.4-25.9
	c3.1-9.9,3.9-20.6,1.9-30.8L61.7,28.7L51.7,97.1z"/>
<path fill="#FFFFFF" stroke="#FFFFFF" stroke-miterlimit="10" d="M85.1,71.9c0,13.9-11.3,25.2-25.2,25.2S34.8,85.8,34.8,71.9
	S46.1,29.1,60,29.1S85.1,58,85.1,71.9z"/>
<path fill="none" stroke="#E8932C" stroke-width="0.75" stroke-linecap="round" stroke-linejoin="round" stroke-miterlimit="10" d="
	M41.9,57.3c0,0-12.8,26.7,12,36"/>
</svg>
