<?xml version="1.0" encoding="utf-8"?>
<!-- Generator: Adobe Illustrator 23.1.0, SVG Export Plug-In . SVG Version: 6.00 Build 0)  -->
<svg version="1.1" id="Capa_1" xmlns="http://www.w3.org/2000/svg" xmlns:xlink="http://www.w3.org/1999/xlink" x="0px" y="0px"
	 viewBox="0 0 120.2 125.4" enable-background="new 0 0 120.2 125.4" xml:space="preserve">
<path fill="#99BB4E" d="M112.2,46.3c-6.7-23.2-29.5-41-54.3-38c-0.1-0.2-0.3-0.2-0.6-0.2C34.7,10.6,16.4,27,9.7,48.4
	c-0.8,2.7-1.5,5.4-2,8.2c-0.2,0.1-0.2,0.4-0.1,0.5c-0.2,1-0.3,2-0.4,3c-0.1,0.1-0.1,0.2,0,0.3c-0.8,7.3-0.4,14.8,1.7,21.8
	c0.9,2.9,2,5.6,3.4,8.1c0,0.2,0.1,0.4,0.3,0.5c3.8,6.5,9.4,11.7,16,16c9.8,6.3,20.6,10.7,32.4,10.5c1.3,0,2.6-0.1,3.9-0.2
	c0.2,0.2,0.7,0.2,0.8-0.1c8.9-0.9,17.7-4,25.3-8.8c9.9-6.2,17-14.6,20.5-25.8C115.1,70.8,115.6,58.1,112.2,46.3z"/>
<linearGradient id="SVGID_1_" gradientUnits="userSpaceOnUse" x1="38.4572" y1="52.6172" x2="118.231" y2="89.0595">
	<stop  offset="7.925588e-02" style="stop-color:#546428"/>
	<stop  offset="0.2107" style="stop-color:#5E712D"/>
	<stop  offset="0.6888" style="stop-color:#87A443"/>
	<stop  offset="0.9241" style="stop-color:#99BB4E"/>
</linearGradient>
<path fill="url(#SVGID_1_)" d="M112.2,46.3c-0.4-1.5-0.9-2.9-1.5-4.4l-16-12.1L28.1,96.1l43.2,20c6.9-1.4,13.6-4.1,19.6-7.9
	c4.2-2.7,8-5.7,11.1-9.3l2.2-2.7c3.1-4,5.5-8.6,7.2-13.8C115.1,70.8,115.6,58.1,112.2,46.3z"/>
<path fill="#FFFFFF" stroke="#FFFFFF" stroke-width="2.7" stroke-linecap="round" stroke-linejoin="round" stroke-miterlimit="10" d="
	M28.1,94.6c0,0,27,8.3,31.7-15.3c0,0,17-0.7,16.7-17c0,0,21.7,1.7,17-32c0,0-30.4-7-32.4,16c0,0-17-0.9-17.3,16.4
	C43.8,62.6,22.1,62.3,28.1,94.6z"/>
<circle fill="none" stroke="#99BB4E" stroke-width="0.75" stroke-linecap="round" stroke-linejoin="round" stroke-miterlimit="10" cx="76.7" cy="46.4" r="8.6"/>
<circle fill="none" stroke="#99BB4E" stroke-width="0.75" stroke-linecap="round" stroke-linejoin="round" stroke-miterlimit="10" cx="60.6" cy="62.6" r="8.6"/>
<circle fill="none" stroke="#99BB4E" stroke-width="0.75" stroke-linecap="round" stroke-linejoin="round" stroke-miterlimit="10" cx="43.4" cy="79.9" r="8.6"/>
<path fill="none" stroke="#99BB4E" stroke-width="0.75" stroke-linecap="round" stroke-linejoin="round" stroke-miterlimit="10" d="
	M41.9,86.5c0,0,6.1,1.7,8.1-5"/>
<path fill="none" stroke="#99BB4E" stroke-width="0.75" stroke-linecap="round" stroke-linejoin="round" stroke-miterlimit="10" d="
	M59.3,69.5c0,0,6.1,1.7,8.1-5"/>
<path fill="none" stroke="#99BB4E" stroke-width="0.75" stroke-linecap="round" stroke-linejoin="round" stroke-miterlimit="10" d="
	M75.2,53c0,0,6.1,1.7,8.1-5"/>
</svg>
